# Blender v2.77 (sub 0) OBJ File: 'Ksiazka.blend'
# www.blender.org
o Ksiazka_Cube
v 0.721419 -0.339526 -1.000000
v 0.721419 -0.339526 1.000000
v -0.703372 -0.339526 1.000000
v -0.703372 -0.339526 -1.000000
v 0.721419 0.060474 -1.000000
v 0.721419 0.060474 1.000001
v -0.703373 0.060474 1.000000
v -0.703372 0.060474 -1.000000
v 0.721419 -0.298091 -1.000000
v 0.721419 0.019040 -1.000000
v 0.721419 -0.298091 1.000000
v 0.721419 0.019040 1.000000
v -0.714237 -0.298091 1.000000
v -0.714237 0.019040 1.000000
v -0.714237 -0.298091 -1.000000
v -0.714237 0.019040 -1.000000
v 0.721419 -0.339526 -0.953135
v 0.721419 -0.339526 0.953135
v -0.703372 -0.339526 0.953135
v -0.703372 -0.339526 -0.953135
v 0.721419 0.060474 -0.953135
v 0.721419 0.060474 0.953135
v -0.703373 0.060474 0.953135
v -0.703372 0.060474 -0.953135
v -0.714237 -0.298091 -0.953135
v -0.714237 0.019040 -0.953135
v 0.721419 -0.298091 -0.953135
v 0.721419 -0.298091 0.953135
v 0.721419 0.019040 -0.953135
v 0.721419 0.019040 0.953135
v 0.695466 -0.339526 -1.000000
v 0.695466 -0.339526 1.000000
v 0.695466 0.060474 -0.999999
v 0.695466 0.060474 1.000001
v 0.695466 -0.298091 -1.000000
v 0.695466 -0.298091 1.000000
v 0.695466 0.060474 -0.953135
v 0.695466 0.060474 0.953135
v 0.695466 -0.339526 -0.953135
v 0.695466 -0.339526 0.953135
v -0.714237 0.019040 0.953135
v 0.695466 0.019040 -1.000000
v -0.714237 -0.298091 0.953135
v 0.695466 0.019040 1.000000
v 0.695466 -0.298091 -0.953135
v 0.695466 -0.298091 0.953135
v 0.695466 0.019040 -0.953135
v 0.695466 0.019040 0.953135
v -0.732864 -0.139526 1.000000
v -0.732864 -0.139526 -1.000000
v -0.714237 -0.298091 -0.976568
v -0.714237 0.019040 -0.976568
v -0.714237 -0.298091 0.976568
v -0.732864 -0.139526 -0.953135
v -0.714237 0.019040 0.976568
v -0.714237 -0.298091 0.000000
v -0.714237 0.019040 0.000000
v -0.732864 -0.139526 0.953135
v -0.732864 -0.139526 0.000000
v -0.732864 -0.139526 0.976568
v -0.732864 -0.139526 -0.976568
vt 0.912401 0.638872
vt 0.912401 0.673271
vt 0.554500 0.659526
vt 0.554500 0.638872
vt 0.067939 0.638872
vt 0.406560 0.638872
vt 0.406560 0.658850
vt 0.086142 0.672908
vt 0.022871 0.638872
vt 0.036217 0.638872
vt 0.036587 0.673395
vt 0.022700 0.673811
vt 0.086142 0.687309
vt 0.427036 0.667319
vt 0.441003 0.104512
vt 0.406560 0.104512
vt 0.406560 0.079590
vt 0.436468 0.071750
vt 0.438094 0.079969
vt 0.912401 0.046735
vt 0.912401 0.060524
vt 0.554500 0.081333
vt 0.533031 0.072964
vt 0.067939 0.052411
vt 0.067939 0.038077
vt 0.554500 0.104512
vt 0.528870 0.104512
vt 0.530654 0.080340
vt 0.483339 0.659749
vt 0.526846 0.660344
vt 0.529529 0.667635
vt 0.483339 0.666499
vt 0.912401 0.687485
vt 0.529529 0.667635
vt 0.946286 0.638872
vt 0.931111 0.104512
vt 0.940724 0.104512
vt 0.955682 0.638872
vt 0.937777 0.638872
vt 0.946473 0.674002
vt 0.937541 0.673718
vt 0.038257 0.104512
vt 0.013270 0.638872
vt 0.028522 0.104512
vt 0.013554 0.673969
vt 0.930660 0.059066
vt 0.939958 0.058619
vt 0.921196 0.059966
vt 0.922358 0.104512
vt 0.483339 0.080340
vt 0.530654 0.080340
vt 0.528781 0.104512
vt 0.483339 0.104512
vt 0.483339 0.366761
vt 0.439942 0.366186
vt 0.483339 0.104512
vt 0.526846 0.660344
vt 0.527357 0.638872
vt 0.527029 0.367135
vt 0.440708 0.638872
vt 0.429738 0.660012
vt 0.038694 0.051112
vt 0.053100 0.051814
vt 0.051919 0.104512
vt 0.067939 0.104512
vt 0.912401 0.104512
vt 0.029266 0.050674
vt 0.932235 0.687865
vt 0.955520 0.674138
vt 0.035980 0.037385
vt 0.912865 0.046087
vt 0.037188 0.687686
vt 0.536848 0.066503
vt 0.536916 0.060362
vt 0.912401 0.034467
vt 0.067939 0.025251
vt 0.431884 0.057375
vt 0.431462 0.063797
vt 0.912401 0.700404
vt 0.534193 0.681675
vt 0.534392 0.675210
vt 0.422238 0.674696
vt 0.422442 0.681249
vt 0.086142 0.700404
vt 0.023055 0.842146
vt 0.307607 0.842146
vt 0.307607 0.966829
vt 0.023055 0.966829
vt 0.019295 0.904488
vt 0.692393 0.842146
vt 0.692393 0.966829
vt 0.976945 0.966829
vt 0.976945 0.842146
vt 0.980705 0.904487
vt 0.483339 0.638872
vt 0.438094 0.079969
vt 0.441003 0.104512
vt 0.436468 0.071750
vt 0.483339 0.073298
vt 0.533192 0.072964
vt 0.429738 0.660012
vt 0.427036 0.667319
vt 0.440708 0.638872
vt 0.483339 0.638872
vt 0.527357 0.638872
vn 0.000000 -1.000000 -0.000000
vn 0.000000 1.000000 0.000000
vn 1.000000 0.000000 0.000000
vn -0.000000 -0.000000 1.000000
vn -0.967300 0.253600 -0.000000
vn 0.000000 0.000000 -1.000000
vn -0.967300 -0.253600 -0.000000
vn -0.993200 0.116700 -0.000000
vn -0.993200 -0.116700 -0.000000
s off
f 40/1/1 32/2/1 3/3/1 19/4/1
f 38/5/2 23/6/2 7/7/2 34/8/2
f 30/9/3 22/10/3 6/11/3 12/12/3
f 44/13/4 34/8/4 7/7/4 14/14/4
f 26/15/5 24/16/5 8/17/5 16/18/5 52/19/5
f 35/20/6 31/21/6 4/22/6 15/23/6
f 33/24/6 42/25/6 16/18/6 8/17/6
f 20/26/7 25/27/7 51/28/7 15/23/7 4/22/7
f 61/29/8 52/30/8 16/31/8 50/32/8
f 32/2/4 36/33/4 13/34/4 3/3/4
f 28/35/2 27/36/2 45/37/2 46/38/2
f 18/39/3 28/35/3 11/40/3 2/41/3
f 29/42/1 30/9/1 48/43/1 47/44/1
f 30/9/1 12/12/1 44/45/1 48/43/1
f 27/36/2 9/46/2 35/47/2 45/37/2
f 1/48/3 9/46/3 27/36/3 17/49/3
f 17/49/3 27/36/3 28/35/3 18/39/3
f 60/50/8 55/51/8 41/52/8 58/53/8
f 59/54/8 57/55/8 26/15/8 54/56/8
f 3/3/7 13/34/7 53/57/7 43/58/7 19/4/7
f 19/4/7 43/58/7 56/59/7 25/27/7 20/26/7
f 14/14/5 7/7/5 23/6/5 41/60/5 55/61/5
f 41/60/5 23/6/5 24/16/5 26/15/5 57/55/5
f 10/62/3 5/63/3 21/64/3 29/42/3
f 29/42/3 21/64/3 22/10/3 30/9/3
f 33/24/2 8/17/2 24/16/2 37/65/2
f 37/65/2 24/16/2 23/6/2 38/5/2
f 31/21/1 39/66/1 20/26/1 4/22/1
f 39/66/1 40/1/1 19/4/1 20/26/1
f 17/49/1 18/39/1 40/1/1 39/66/1
f 1/48/1 17/49/1 39/66/1 31/21/1
f 21/64/2 37/65/2 38/5/2 22/10/2
f 5/63/2 33/24/2 37/65/2 21/64/2
f 10/62/1 29/42/1 47/44/1 42/67/1
f 2/41/4 11/68/4 36/33/4 32/2/4
f 11/40/2 28/35/2 46/38/2 36/69/2
f 5/63/6 10/70/6 42/25/6 33/24/6
f 9/71/6 1/48/6 31/21/6 35/20/6
f 12/72/4 6/11/4 34/8/4 44/13/4
f 22/10/2 38/5/2 34/8/2 6/11/2
f 18/39/1 2/41/1 32/2/1 40/1/1
f 35/20/2 15/23/2 51/73/2 25/74/2 45/75/2
f 16/18/1 42/25/1 47/76/1 26/77/1 52/78/1
f 13/34/2 36/33/2 46/79/2 43/80/2 53/81/2
f 44/13/1 14/14/1 55/82/1 41/83/1 48/84/1
f 43/85/4 46/86/4 48/87/4 41/88/4 58/89/4
f 46/86/3 45/90/3 47/91/3 48/87/3
f 26/92/6 47/91/6 45/90/6 25/93/6 54/94/6
f 56/59/9 59/54/9 54/56/9 25/27/9
f 43/58/9 58/95/9 59/54/9 56/59/9
f 58/95/8 41/60/8 57/55/8 59/54/8
f 53/96/9 60/50/9 58/53/9 43/97/9
f 13/98/9 49/99/9 60/50/9 53/96/9
f 49/99/8 14/100/8 55/51/8 60/50/8
f 51/101/9 61/29/9 50/32/9 15/102/9
f 25/103/9 54/104/9 61/29/9 51/101/9
f 54/104/8 26/105/8 52/30/8 61/29/8
