# Blender v2.77 (sub 0) OBJ File: 'Banknot.blend'
# www.blender.org
o Banknot_Plane
v -2.000000 0.005474 1.000000
v 2.000000 0.005474 1.000000
v -2.000000 0.005474 -1.000000
v 2.000000 0.005474 -1.000000
v -2.000000 0.026003 -1.000000
v -2.000000 0.026003 1.000000
v 2.000000 0.026003 1.000000
v 2.000000 0.026003 -1.000000
vt 0.010259 0.499996
vt 0.988046 0.979598
vt 0.010255 0.979590
vt 0.988054 0.000108
vt 0.010260 0.479694
vt 0.010263 0.000100
vt 0.988050 0.500004
vt 0.995710 0.979598
vt 0.004286 0.499996
vt 0.988050 0.479701
vt 0.020402 0.988862
vt 0.995714 0.500004
vt 0.004283 0.979589
vt 0.988046 0.988870
vn 0.000000 -1.000000 0.000000
vn 0.000000 1.000000 0.000000
vn 1.000000 0.000000 0.000000
vn -1.000000 0.000000 0.000000
vn 0.000000 0.000000 -1.000000
vn 0.000000 0.000000 1.000000
s off
f 3/1/1 2/2/1 1/3/1
f 7/4/2 5/5/2 6/6/2
f 4/7/3 7/8/3 2/2/3
f 1/3/4 5/9/4 3/1/4
f 3/1/5 8/10/5 4/7/5
f 2/2/6 6/11/6 1/3/6
f 3/1/1 4/7/1 2/2/1
f 7/4/2 8/10/2 5/5/2
f 4/7/3 8/12/3 7/8/3
f 1/3/4 6/13/4 5/9/4
f 3/1/5 5/5/5 8/10/5
f 2/2/6 7/14/6 6/11/6
