# Blender v2.77 (sub 0) OBJ File: 'Modele.blend'
# www.blender.org
o Banknot_Plane
v -2.000000 0.000000 1.000000
v 2.000000 0.000000 1.000000
v -2.000000 0.000000 -1.000000
v 2.000000 0.000000 -1.000000
v -2.000000 0.031477 -1.000000
v -2.000000 0.031477 1.000000
v 2.000000 0.031477 1.000000
v 2.000000 0.031477 -1.000000
vn 0.000000 -1.000000 0.000000
vn 0.000000 1.000000 0.000000
vn 1.000000 0.000000 0.000000
vn -1.000000 0.000000 0.000000
vn 0.000000 0.000000 -1.000000
vn 0.000000 0.000000 1.000000
s off
f 3//1 2//1 1//1
f 7//2 5//2 6//2
f 4//3 7//3 2//3
f 1//4 5//4 3//4
f 3//5 8//5 4//5
f 2//6 6//6 1//6
f 3//1 4//1 2//1
f 7//2 8//2 5//2
f 4//3 8//3 7//3
f 1//4 6//4 5//4
f 3//5 5//5 8//5
f 2//6 7//6 6//6
