# Blender v2.77 (sub 0) OBJ File: 'Modele.blend'
# www.blender.org
o Sphere.002
v -47.038361 0.000003 -0.000000
v -46.134533 0.000003 -9.176732
v -43.457775 0.000003 -18.000807
v -39.110962 0.000003 -26.133121
v -33.261135 0.000003 -33.261154
v -26.133102 0.000003 -39.110981
v -18.000788 0.000003 -43.457790
v -9.176713 0.000003 -46.134544
v 0.000018 0.000003 -47.038372
v 9.176749 0.000003 -46.134544
v 18.000822 0.000003 -43.457787
v 26.133133 0.000003 -39.110973
v 33.261166 0.000003 -33.261147
v 39.110992 0.000003 -26.133114
v 43.457802 0.000003 -18.000799
v 46.134556 0.000003 -9.176725
v 47.038383 0.000003 0.000005
v 46.134548 0.000003 9.176735
v 43.457794 0.000003 18.000809
v 39.110981 0.000003 26.133120
v 33.261150 0.000003 33.261150
v 26.133120 0.000003 39.110973
v 18.000807 0.000003 43.457779
v 9.176735 0.000003 46.134529
v 0.000007 0.000003 47.038353
v -9.176722 0.000003 46.134521
v -18.000792 0.000003 43.457764
v -26.133099 0.000003 39.110950
v -33.261127 0.000003 33.261124
v -39.110947 0.000003 26.133093
v -43.457752 0.000003 18.000782
v -46.134499 0.000003 9.176713
vt 19.941544 2.630890
vt 15.655914 -11.497108
vt -18.452209 -1.150555
vt -11.492683 -14.171005
vt -14.166580 -11.497093
vt -17.714508 -4.859341
vt -16.267426 -8.352936
vt -18.452194 2.630896
vt -17.714478 6.339664
vt -16.267380 9.833252
vt -14.166504 12.977409
vt -11.492622 15.651291
vt -8.348465 17.752151
vt -4.854855 19.199249
vt -1.146063 19.936981
vt 2.635387 19.936981
vt 6.344181 19.199249
vt 10.177917 18.388489
vt 12.981956 15.651291
vt 15.655853 12.977409
vt 17.756714 9.833267
vt 19.203827 6.339664
vt 19.941559 -1.150568
vt 19.203857 -4.859341
vt 17.756775 -8.352936
vt 12.982018 -14.171021
vt 9.837837 -16.271896
vt 6.344215 -17.718994
vt 2.635399 -18.456726
vt -1.146080 -18.456726
vt -4.854897 -17.718979
vt -8.348518 -16.271866
vn 0.000000 1.000000 0.000000
s 1
f 15/1/1 11/2/1 31/3/1
f 3/4/1 2/5/1 32/6/1
f 1/7/1 32/6/1 2/5/1
f 31/3/1 30/8/1 29/9/1
f 29/9/1 28/10/1 31/3/1
f 27/11/1 26/12/1 25/13/1
f 25/13/1 24/14/1 23/15/1
f 23/15/1 22/16/1 21/17/1
f 21/17/1 20/18/1 19/19/1
f 19/19/1 18/20/1 15/1/1
f 17/21/1 16/22/1 18/20/1
f 15/1/1 14/23/1 13/24/1
f 13/24/1 12/25/1 11/2/1
f 11/2/1 10/26/1 9/27/1
f 9/27/1 8/28/1 7/29/1
f 7/29/1 6/30/1 5/31/1
f 5/31/1 4/32/1 32/6/1
f 3/4/1 32/6/1 4/32/1
f 31/3/1 28/10/1 27/11/1
f 27/11/1 25/13/1 31/3/1
f 23/15/1 21/17/1 19/19/1
f 18/20/1 16/22/1 15/1/1
f 15/1/1 13/24/1 11/2/1
f 11/2/1 9/27/1 32/6/1
f 7/29/1 5/31/1 32/6/1
f 32/6/1 31/3/1 11/2/1
f 25/13/1 23/15/1 31/3/1
f 19/19/1 15/1/1 31/3/1
f 9/27/1 7/29/1 32/6/1
f 31/3/1 23/15/1 19/19/1
