# Blender v2.77 (sub 0) OBJ File: 'Modele.blend'
# www.blender.org
o Cube.003_Cube.011
v -0.306338 0.002657 0.306338
v -0.329415 0.880086 0.329415
v -0.306338 0.002657 0.211825
v -0.329415 0.880086 0.087266
v -0.211825 0.002657 0.306338
v -0.087266 0.880086 0.329415
v -0.211825 0.002657 0.211825
v -0.087266 0.880086 0.087266
v -0.306338 0.002657 -0.211825
v -0.329415 0.880086 -0.087266
v -0.306338 0.002657 -0.306338
v -0.329415 0.880086 -0.329415
v -0.211825 0.002657 -0.211825
v -0.087266 0.880086 -0.087266
v -0.211825 0.002657 -0.306338
v -0.087266 0.880086 -0.329415
v 0.211825 0.002657 0.306338
v 0.087266 0.880086 0.329415
v 0.211825 0.002657 0.211825
v 0.087266 0.880086 0.087266
v 0.306338 0.002657 0.306338
v 0.329415 0.880086 0.329415
v 0.306338 0.002657 0.211825
v 0.329415 0.880086 0.087266
v 0.211825 0.002657 -0.211825
v 0.087266 0.880086 -0.087266
v 0.211825 0.002657 -0.306338
v 0.087266 0.880086 -0.329415
v 0.306338 0.002657 -0.211825
v 0.329415 0.880086 -0.087266
v 0.306338 0.002657 -0.306338
v 0.329415 0.880086 -0.329415
v -0.329415 0.918352 0.329415
v -0.329415 0.918352 0.087266
v -0.087266 0.918352 0.087266
v -0.087266 0.918352 0.329415
v -0.329415 0.918352 -0.087266
v -0.329415 0.918352 -0.329415
v -0.087266 0.918352 -0.329415
v -0.087266 0.918352 -0.087266
v 0.087266 0.918352 0.329415
v 0.087266 0.918352 0.087266
v 0.329415 0.918352 0.087266
v 0.329415 0.918352 0.329415
v 0.087266 0.918352 -0.087266
v 0.087266 0.918352 -0.329415
v 0.329415 0.918352 -0.329415
v 0.329415 0.918352 -0.087266
v -0.353141 0.923743 0.353141
v -0.353141 0.923743 0.093552
v -0.093552 0.923743 0.353141
v -0.353141 0.923743 -0.093552
v -0.353141 0.923743 -0.353141
v -0.093552 0.923743 -0.353141
v 0.093552 0.923743 0.353141
v 0.353141 0.923743 0.093552
v 0.353141 0.923743 0.353141
v 0.093552 0.923743 -0.353141
v 0.353141 0.923743 -0.353141
v 0.353141 0.923743 -0.093552
v -0.353141 0.945376 0.353141
v -0.353141 0.945376 0.093552
v -0.093552 0.945376 0.353141
v -0.353141 0.945376 -0.093552
v -0.353141 0.945376 -0.353141
v -0.093552 0.945376 -0.353141
v 0.093552 0.945376 0.353141
v 0.353141 0.945376 0.093552
v 0.353141 0.945376 0.353141
v 0.093552 0.945376 -0.353141
v 0.353141 0.945376 -0.353141
v 0.353141 0.945376 -0.093552
v -0.341548 0.958808 0.341548
v -0.341548 0.958808 0.090481
v -0.090481 0.958808 0.341548
v -0.341548 0.958808 -0.090481
v -0.341548 0.958808 -0.341548
v -0.090481 0.958808 -0.341548
v 0.090481 0.958808 0.341548
v 0.341548 0.958808 0.090481
v 0.341548 0.958808 0.341548
v 0.090481 0.958808 -0.341548
v 0.341548 0.958808 -0.341548
v 0.341548 0.958808 -0.090481
v -0.122851 0.972272 0.122851
v -0.122851 0.972272 0.032545
v -0.036748 0.972272 0.122851
v -0.122851 0.972272 -0.032545
v -0.122851 0.972272 -0.122851
v -0.036748 0.972272 -0.122851
v 0.036748 0.972272 0.122851
v 0.122851 0.972272 0.032545
v 0.122851 0.972272 0.122851
v 0.036748 0.972272 -0.122851
v 0.122851 0.972272 -0.122851
v 0.122851 0.972272 -0.032545
v -0.036748 0.964785 -0.032545
v 0.036748 0.964785 -0.032545
v -0.036748 0.964785 0.032545
v 0.036748 0.964785 0.032545
v -0.314031 0.412124 0.314031
v -0.321723 0.470619 0.321723
v -0.321723 0.470619 0.128786
v -0.314031 0.412124 0.170305
v -0.128786 0.470619 0.128786
v -0.170305 0.412124 0.170305
v -0.128786 0.470619 0.321723
v -0.170305 0.412124 0.314031
v 0.170305 0.412124 0.314031
v 0.128786 0.470619 0.321723
v 0.128786 0.470619 0.128786
v 0.170305 0.412124 0.170305
v 0.321723 0.470619 0.128786
v 0.314031 0.412124 0.170305
v 0.321723 0.470619 0.321723
v 0.314031 0.412124 0.314031
v 0.170305 0.412124 -0.170305
v 0.128786 0.470619 -0.128786
v 0.128786 0.470619 -0.321723
v 0.170305 0.412124 -0.314031
v 0.321723 0.470619 -0.321723
v 0.314031 0.412124 -0.314031
v 0.321723 0.470619 -0.128786
v 0.314031 0.412124 -0.170305
v -0.314031 0.412124 -0.170305
v -0.321723 0.470619 -0.128786
v -0.321723 0.470619 -0.321723
v -0.314031 0.412124 -0.314031
v -0.128786 0.470619 -0.321723
v -0.170305 0.412124 -0.314031
v -0.128786 0.470619 -0.128786
v -0.170305 0.412124 -0.170305
vt 0.018829 0.908513
vt 0.018342 0.907966
vt 0.018337 0.907969
vt 0.018382 0.908656
vt 0.018353 0.907925
vt 0.018126 0.907091
vt 0.017995 0.907512
vt 0.018291 0.907942
vt 0.106469 0.985581
vt 0.122252 0.997885
vt 0.132698 0.996772
vt 0.104445 0.989436
vt 0.104339 0.989503
vt 0.103013 0.988993
vt 0.104441 0.989540
vt 0.104396 0.989509
vt 0.105765 0.990039
vt 0.104425 0.989428
vt 0.104396 0.989460
vt 0.173360 0.615703
vt 0.134830 0.633956
vt 0.155295 0.592691
vt 0.015181 0.687068
vt 0.015855 0.686876
vt 0.015824 0.686868
vt 0.015672 0.687457
vt 0.015833 0.686833
vt 0.016527 0.686479
vt 0.015826 0.686873
vt 0.000078 0.688253
vt 0.036473 0.862342
vt 0.018421 0.883749
vt 0.214770 0.439947
vt 0.264307 0.070860
vt 0.211695 0.443683
vt 0.210254 0.435192
vt 0.282763 0.000078
vt 0.270928 0.086690
vt 0.282602 0.058662
vt 0.210842 0.439046
vt 0.032531 0.922219
vt 0.017661 0.920212
vt 0.014333 0.922241
vt 0.063401 0.953218
vt 0.078209 0.975703
vt 0.035852 0.679400
vt 0.005302 0.716979
vt 0.012166 0.703338
vt 0.012061 0.682715
vt 0.059856 0.684893
vt 0.042543 0.940152
vt 0.014162 0.687057
vt 0.016161 0.685921
vt 0.017662 0.685491
vt 0.321676 0.211573
vt 0.282919 0.250329
vt 0.321676 0.250329
vt 0.321676 0.144881
vt 0.282919 0.183638
vt 0.321676 0.183638
vt 0.388367 0.211573
vt 0.349611 0.250329
vt 0.388367 0.250329
vt 0.388367 0.144881
vt 0.349611 0.183638
vt 0.388367 0.183638
vt 0.349611 0.211573
vt 0.282919 0.211573
vt 0.349611 0.144881
vt 0.203264 0.667759
vt 0.172994 0.630181
vt 0.104409 0.992807
vt 0.170252 0.746980
vt 0.372953 0.000078
vt 0.338140 0.004641
vt 0.338208 0.000078
vt 0.407651 0.020325
vt 0.372966 0.004687
vt 0.282919 0.089446
vt 0.287531 0.054687
vt 0.287482 0.089513
vt 0.303170 0.020005
vt 0.306029 0.022899
vt 0.427573 0.090114
vt 0.423018 0.055299
vt 0.427581 0.055367
vt 0.407319 0.124805
vt 0.372350 0.140163
vt 0.404461 0.121911
vt 0.302851 0.124481
vt 0.305744 0.121623
vt 0.422964 0.090126
vt 0.337543 0.144722
vt 0.372281 0.144725
vt 0.282922 0.054700
vt 0.404757 0.023184
vt 0.337530 0.140114
vt 0.291667 0.055805
vt 0.307649 0.119633
vt 0.339140 0.008611
vt 0.402471 0.120005
vt 0.371350 0.136193
vt 0.338647 0.135979
vt 0.402851 0.025174
vt 0.291452 0.088513
vt 0.308019 0.024805
vt 0.371849 0.008823
vt 0.419047 0.056299
vt 0.418828 0.089008
vt 0.400817 0.118338
vt 0.416020 0.087935
vt 0.309673 0.026471
vt 0.294475 0.056877
vt 0.309316 0.117978
vt 0.340230 0.011398
vt 0.370261 0.133407
vt 0.339719 0.133171
vt 0.401184 0.026829
vt 0.294239 0.087423
vt 0.370776 0.011632
vt 0.416260 0.057388
vt 0.376291 0.078065
vt 0.376322 0.066926
vt 0.376126 0.093466
vt 0.334367 0.051341
vt 0.334203 0.066742
vt 0.334188 0.093282
vt 0.349067 0.051334
vt 0.361427 0.093472
vt 0.348885 0.093435
vt 0.376311 0.051524
vt 0.334178 0.077883
vt 0.361610 0.051369
vt 0.348961 0.077926
vt 0.361492 0.077980
vt 0.349009 0.066823
vt 0.361533 0.066880
vt 0.017440 0.905484
vt 0.019636 0.909416
vt 0.017573 0.906948
vt 0.007505 0.902939
vt 0.107896 0.991156
vt 0.018158 0.909568
vt 0.015413 0.688416
vt 0.100652 0.988405
vt 0.205779 0.480992
vt 0.203191 0.472917
vt 0.205681 0.469028
vt 0.210098 0.481195
vt 0.203264 0.584239
vt 0.104397 0.989399
vt 0.100201 0.999922
vt 0.104521 0.989331
vt 0.015976 0.686447
vt 0.015443 0.675809
vt 0.282919 0.144881
vn -0.999800 -0.018800 0.000000
vn 0.000000 -0.100900 -0.994900
vn 0.994900 -0.100900 0.000000
vn 0.000000 -0.018800 0.999800
vn 0.000000 -1.000000 0.000000
vn 0.000000 0.000000 -1.000000
vn 0.000000 -0.018800 -0.999800
vn 0.000000 -0.100900 0.994900
vn 1.000000 0.000000 0.000000
vn -0.994900 -0.100900 0.000000
vn 0.999800 -0.018800 0.000000
vn 0.000000 0.000000 1.000000
vn -1.000000 0.000000 0.000000
vn 0.000000 1.000000 0.000000
vn 0.000000 -0.975100 -0.221600
vn 0.221600 -0.975100 0.000000
vn -0.221600 -0.975100 0.000000
vn 0.000000 -0.975100 0.221600
vn -0.757100 0.653400 0.000000
vn 0.757100 0.653400 0.000000
vn 0.000000 0.653400 -0.757100
vn 0.000000 0.653400 0.757100
vn -0.061400 0.998100 0.000000
vn 0.061400 0.998100 0.000000
vn 0.000000 0.998100 -0.061400
vn 0.000000 0.998100 0.061500
vn 0.000000 0.998100 0.061400
vn -0.086600 0.996200 0.000000
vn 0.000000 0.996600 -0.082600
vn 0.086300 0.992900 -0.082300
vn 0.000000 0.996600 0.082600
vn 0.086600 0.996200 0.000000
vn 0.000000 -0.130400 0.991500
vn 0.815500 -0.578800 0.000000
vn -0.991500 -0.130400 0.000000
vn 0.991500 -0.130400 0.000000
vn 0.000000 -0.578800 0.815500
vn 0.000000 -0.130400 -0.991500
vn -0.815500 -0.578800 0.000000
vn 0.000000 -0.578800 -0.815500
vn 0.000000 0.998100 -0.061500
vn -0.086300 0.992900 -0.082300
vn -0.086300 0.992900 0.082300
vn 0.086300 0.992900 0.082300
s off
f 101/1/1 3/2/1 1/3/1
f 104/4/2 7/5/2 3/2/2
f 108/6/3 7/5/3 106/7/3
f 101/1/4 5/8/4 108/6/4
f 3/2/5 5/8/5 1/3/5
f 12/9/6 39/10/6 16/11/6
f 128/12/1 9/13/1 125/14/1
f 128/12/7 15/15/7 11/16/7
f 130/17/3 13/18/3 15/15/3
f 125/14/8 13/18/8 132/19/8
f 11/16/5 13/18/5 9/13/5
f 32/20/9 48/21/9 30/22/9
f 109/23/10 19/24/10 17/25/10
f 116/26/11 23/27/11 114/28/11
f 19/24/5 21/29/5 17/25/5
f 18/30/12 36/31/12 6/32/12
f 120/33/10 25/34/10 117/35/10
f 122/36/7 27/37/7 120/33/7
f 122/36/11 29/38/11 31/39/11
f 124/40/8 25/34/8 29/38/8
f 27/37/5 29/38/5 25/34/5
f 2/41/13 34/42/13 4/43/13
f 4/43/13 37/44/13 10/45/13
f 24/46/9 44/47/9 22/48/9
f 22/48/12 41/49/12 18/30/12
f 30/22/9 43/50/9 24/46/9
f 6/32/12 33/51/12 2/41/12
f 110/52/4 22/48/4 18/30/4
f 111/53/2 24/46/2 113/54/2
f 35/55/14 33/56/14 36/57/14
f 39/58/14 37/59/14 40/60/14
f 43/61/14 41/62/14 44/63/14
f 47/64/14 45/65/14 48/66/14
f 41/62/5 35/55/5 42/67/5
f 42/67/5 48/66/5 43/61/5
f 34/68/5 40/60/5 35/55/5
f 45/65/5 39/58/5 46/69/5
f 35/55/5 45/65/5 42/67/5
f 28/70/6 47/71/6 32/20/6
f 10/45/13 38/72/13 12/9/13
f 16/11/6 46/73/6 28/70/6
f 39/74/15 58/75/15 46/76/15
f 38/77/15 54/78/15 39/74/15
f 43/79/16 60/80/16 56/81/16
f 47/82/15 58/75/15 59/83/15
f 34/84/17 52/85/17 37/86/17
f 33/87/18 51/88/18 49/89/18
f 44/90/16 56/81/16 57/91/16
f 33/87/17 50/92/17 34/84/17
f 41/93/18 51/88/18 36/94/18
f 47/82/16 60/80/16 48/95/16
f 38/77/17 52/85/17 53/96/17
f 44/90/18 55/97/18 41/93/18
f 59/83/9 72/98/9 60/80/9
f 56/81/9 69/99/9 57/91/9
f 54/78/6 70/100/6 58/75/6
f 51/88/12 61/101/12 49/89/12
f 55/97/12 63/102/12 51/88/12
f 57/91/12 67/103/12 55/97/12
f 52/85/13 65/104/13 53/96/13
f 60/80/9 68/105/9 56/81/9
f 58/75/6 71/106/6 59/83/6
f 53/96/6 66/107/6 54/78/6
f 50/92/13 64/108/13 52/85/13
f 49/89/13 62/109/13 50/92/13
f 62/109/19 73/110/19 74/111/19
f 72/98/20 83/112/20 84/113/20
f 68/105/20 81/114/20 69/99/20
f 66/107/21 82/115/21 70/100/21
f 63/102/22 73/110/22 61/101/22
f 67/103/22 75/116/22 63/102/22
f 67/103/22 81/114/22 79/117/22
f 64/108/19 77/118/19 65/104/19
f 72/98/20 80/119/20 68/105/20
f 70/100/21 83/112/21 71/106/21
f 66/107/21 77/118/21 78/120/21
f 62/109/19 76/121/19 64/108/19
f 76/121/23 86/122/23 88/123/23
f 74/111/23 85/124/23 86/122/23
f 84/113/24 95/125/24 96/126/24
f 80/119/24 93/127/24 81/114/24
f 78/120/25 94/128/25 82/115/25
f 75/116/26 85/124/26 73/110/26
f 79/117/27 87/129/27 75/116/27
f 79/117/27 93/127/27 91/130/27
f 76/121/23 89/131/23 77/118/23
f 84/113/24 92/132/24 80/119/24
f 82/115/25 95/125/25 83/112/25
f 78/120/25 89/131/25 90/133/25
f 96/126/28 100/134/28 92/132/28
f 92/132/14 91/130/14 93/127/14
f 100/134/29 87/129/29 91/130/29
f 86/122/30 87/129/30 99/135/30
f 94/128/14 96/126/14 95/125/14
f 90/133/31 98/136/31 94/128/31
f 97/137/14 100/134/14 98/136/14
f 99/135/32 88/123/32 86/122/32
f 88/123/14 90/133/14 89/131/14
f 2/41/4 107/138/4 6/32/4
f 102/139/33 108/6/33 107/138/33
f 6/32/3 105/140/3 8/141/3
f 129/142/34 132/19/34 130/17/34
f 4/43/2 105/140/2 103/143/2
f 2/41/1 103/143/1 102/139/1
f 102/139/35 104/4/35 101/1/35
f 19/24/2 114/28/2 23/27/2
f 17/25/4 116/26/4 109/23/4
f 109/23/33 115/144/33 110/52/33
f 22/48/11 113/54/11 24/46/11
f 115/144/36 114/28/36 113/54/36
f 18/30/10 111/53/10 110/52/10
f 132/19/37 126/145/37 125/14/37
f 30/22/8 118/146/8 123/147/8
f 32/20/11 123/147/11 121/148/11
f 121/148/36 124/40/36 122/36/36
f 32/20/7 119/149/7 28/70/7
f 121/148/38 120/33/38 119/149/38
f 28/70/10 118/146/10 26/150/10
f 10/45/8 131/151/8 14/152/8
f 16/11/3 131/151/3 129/142/3
f 12/9/7 129/142/7 127/153/7
f 127/153/38 130/17/38 128/12/38
f 12/9/1 126/145/1 10/45/1
f 127/153/35 125/14/35 126/145/35
f 117/35/37 123/147/37 118/146/37
f 117/35/39 119/149/39 120/33/39
f 112/154/40 113/54/40 114/28/40
f 110/52/39 112/154/39 109/23/39
f 103/143/40 106/7/40 104/4/40
f 106/7/34 107/138/34 108/6/34
f 101/1/1 104/4/1 3/2/1
f 104/4/2 106/7/2 7/5/2
f 108/6/3 5/8/3 7/5/3
f 101/1/4 1/3/4 5/8/4
f 3/2/5 7/5/5 5/8/5
f 12/9/6 38/72/6 39/10/6
f 128/12/1 11/16/1 9/13/1
f 128/12/7 130/17/7 15/15/7
f 130/17/3 132/19/3 13/18/3
f 125/14/8 9/13/8 13/18/8
f 11/16/5 15/15/5 13/18/5
f 32/20/9 47/71/9 48/21/9
f 109/23/10 112/154/10 19/24/10
f 116/26/11 21/29/11 23/27/11
f 19/24/5 23/27/5 21/29/5
f 18/30/12 41/49/12 36/31/12
f 120/33/10 27/37/10 25/34/10
f 122/36/7 31/39/7 27/37/7
f 122/36/11 124/40/11 29/38/11
f 124/40/8 117/35/8 25/34/8
f 27/37/5 31/39/5 29/38/5
f 2/41/13 33/51/13 34/42/13
f 4/43/13 34/42/13 37/44/13
f 24/46/9 43/50/9 44/47/9
f 22/48/12 44/47/12 41/49/12
f 30/22/9 48/21/9 43/50/9
f 6/32/12 36/31/12 33/51/12
f 110/52/4 115/144/4 22/48/4
f 111/53/2 20/155/2 24/46/2
f 35/55/14 34/68/14 33/56/14
f 39/58/14 38/156/14 37/59/14
f 43/61/14 42/67/14 41/62/14
f 47/64/14 46/69/14 45/65/14
f 41/62/5 36/57/5 35/55/5
f 42/67/5 45/65/5 48/66/5
f 34/68/5 37/59/5 40/60/5
f 45/65/5 40/60/5 39/58/5
f 35/55/5 40/60/5 45/65/5
f 28/70/6 46/73/6 47/71/6
f 10/45/13 37/44/13 38/72/13
f 16/11/6 39/10/6 46/73/6
f 39/74/15 54/78/15 58/75/15
f 38/77/15 53/96/15 54/78/15
f 43/79/16 48/95/16 60/80/16
f 47/82/15 46/76/15 58/75/15
f 34/84/17 50/92/17 52/85/17
f 33/87/18 36/94/18 51/88/18
f 44/90/16 43/79/16 56/81/16
f 33/87/17 49/89/17 50/92/17
f 41/93/18 55/97/18 51/88/18
f 47/82/16 59/83/16 60/80/16
f 38/77/17 37/86/17 52/85/17
f 44/90/18 57/91/18 55/97/18
f 59/83/9 71/106/9 72/98/9
f 56/81/9 68/105/9 69/99/9
f 54/78/6 66/107/6 70/100/6
f 51/88/12 63/102/12 61/101/12
f 55/97/12 67/103/12 63/102/12
f 57/91/12 69/99/12 67/103/12
f 52/85/13 64/108/13 65/104/13
f 60/80/9 72/98/9 68/105/9
f 58/75/6 70/100/6 71/106/6
f 53/96/6 65/104/6 66/107/6
f 50/92/13 62/109/13 64/108/13
f 49/89/13 61/101/13 62/109/13
f 62/109/19 61/101/19 73/110/19
f 72/98/20 71/106/20 83/112/20
f 68/105/20 80/119/20 81/114/20
f 66/107/21 78/120/21 82/115/21
f 63/102/22 75/116/22 73/110/22
f 67/103/22 79/117/22 75/116/22
f 67/103/22 69/99/22 81/114/22
f 64/108/19 76/121/19 77/118/19
f 72/98/20 84/113/20 80/119/20
f 70/100/21 82/115/21 83/112/21
f 66/107/21 65/104/21 77/118/21
f 62/109/19 74/111/19 76/121/19
f 76/121/23 74/111/23 86/122/23
f 74/111/23 73/110/23 85/124/23
f 84/113/24 83/112/24 95/125/24
f 80/119/24 92/132/24 93/127/24
f 78/120/41 90/133/41 94/128/41
f 75/116/27 87/129/27 85/124/27
f 79/117/27 91/130/27 87/129/27
f 79/117/27 81/114/27 93/127/27
f 76/121/23 88/123/23 89/131/23
f 84/113/24 96/126/24 92/132/24
f 82/115/25 94/128/25 95/125/25
f 78/120/41 77/118/41 89/131/41
f 96/126/28 98/136/28 100/134/28
f 92/132/42 100/134/42 91/130/42
f 100/134/29 99/135/29 87/129/29
f 86/122/14 85/124/14 87/129/14
f 94/128/43 98/136/43 96/126/43
f 90/133/31 97/137/31 98/136/31
f 97/137/14 99/135/14 100/134/14
f 99/135/32 97/137/32 88/123/32
f 88/123/44 97/137/44 90/133/44
f 2/41/4 102/139/4 107/138/4
f 102/139/33 101/1/33 108/6/33
f 6/32/3 107/138/3 105/140/3
f 129/142/34 131/151/34 132/19/34
f 4/43/2 8/141/2 105/140/2
f 2/41/1 4/43/1 103/143/1
f 102/139/35 103/143/35 104/4/35
f 19/24/2 112/154/2 114/28/2
f 17/25/4 21/29/4 116/26/4
f 109/23/33 116/26/33 115/144/33
f 22/48/11 115/144/11 113/54/11
f 115/144/36 116/26/36 114/28/36
f 18/30/10 20/155/10 111/53/10
f 132/19/37 131/151/37 126/145/37
f 30/22/8 26/150/8 118/146/8
f 32/20/11 30/22/11 123/147/11
f 121/148/36 123/147/36 124/40/36
f 32/20/7 121/148/7 119/149/7
f 121/148/38 122/36/38 120/33/38
f 28/70/10 119/149/10 118/146/10
f 10/45/8 126/145/8 131/151/8
f 16/11/3 14/152/3 131/151/3
f 12/9/7 16/11/7 129/142/7
f 127/153/38 129/142/38 130/17/38
f 12/9/1 127/153/1 126/145/1
f 127/153/35 128/12/35 125/14/35
f 117/35/37 124/40/37 123/147/37
f 117/35/39 118/146/39 119/149/39
f 112/154/40 111/53/40 113/54/40
f 110/52/39 111/53/39 112/154/39
f 103/143/40 105/140/40 106/7/40
f 106/7/34 105/140/34 107/138/34
