# Blender v2.77 (sub 0) OBJ File: 'Modele.blend'
# www.blender.org
o Stol+Ksi_Cube.010
v -1.369093 -0.001946 0.601002
v -1.369093 1.533377 0.601002
v -1.369093 -0.001946 0.447470
v -1.369093 1.533377 0.447470
v -1.215560 -0.001946 0.601002
v -1.215560 1.533376 0.601002
v -1.215560 -0.001946 0.447470
v -1.215560 1.533376 0.447470
v -1.369093 -0.001946 -0.447470
v -1.369093 1.533377 -0.447470
v -1.369093 -0.001946 -0.601003
v -1.369093 1.533377 -0.601003
v -1.215560 -0.001946 -0.447470
v -1.215560 1.533376 -0.447470
v -1.215560 -0.001946 -0.601003
v -1.215560 1.533376 -0.601003
v 1.215560 -0.001947 0.601003
v 1.215560 1.533376 0.601002
v 1.215560 -0.001947 0.447470
v 1.215560 1.533376 0.447470
v 1.369093 -0.001947 0.601003
v 1.369093 1.533376 0.601003
v 1.369093 -0.001947 0.447470
v 1.369093 1.533376 0.447470
v 1.215560 -0.001947 -0.447470
v 1.215560 1.533376 -0.447470
v 1.215560 -0.001947 -0.601002
v 1.215560 1.533376 -0.601002
v 1.369093 -0.001947 -0.447470
v 1.369093 1.533376 -0.447470
v 1.369093 -0.001947 -0.601002
v 1.369093 1.533376 -0.601002
v -1.369093 1.584106 0.601002
v -1.369093 1.584106 0.447470
v -1.215560 1.584106 0.601002
v -1.369093 1.584106 -0.447470
v -1.369093 1.584106 -0.601003
v -1.215560 1.584106 -0.601003
v 1.215560 1.584105 0.601002
v 1.369093 1.584105 0.601003
v 1.369093 1.584105 0.447470
v 1.215560 1.584105 -0.601002
v 1.369093 1.584105 -0.447470
v 1.369093 1.584105 -0.601002
v -0.164407 1.619710 0.261951
v -0.164407 1.628337 0.261951
v -0.164408 1.619710 -0.088477
v -0.164408 1.628337 -0.088477
v 0.249760 1.619710 0.261950
v 0.249760 1.628337 0.261950
v 0.249760 1.619710 -0.088477
v 0.249760 1.628337 -0.088477
v -0.180300 1.619710 0.265916
v -0.180300 1.628337 0.265916
v -0.180301 1.628337 -0.092443
v -0.180301 1.619710 -0.092443
v 0.265653 1.628337 -0.092443
v 0.265653 1.619710 -0.092443
v 0.265653 1.628337 0.265916
v 0.265653 1.619710 0.265916
v 0.042676 1.628337 -0.088477
v 0.042676 1.619710 -0.088477
v 0.042676 1.628337 0.261950
v 0.042676 1.619710 0.261950
v 0.042676 1.628337 -0.092443
v 0.042676 1.619710 -0.092443
v 0.042676 1.628337 0.265916
v 0.042676 1.619710 0.265916
v -0.164407 1.640665 0.261951
v -0.164408 1.640665 -0.088477
v 0.042676 1.640665 -0.088477
v 0.249760 1.640665 -0.088477
v 0.249760 1.640665 0.261950
v 0.042676 1.640665 0.261950
v 0.042676 1.642302 -0.088477
v 0.249760 1.647940 -0.088477
v 0.249760 1.647940 0.261950
v -0.164407 1.647940 0.261951
v -0.164408 1.647940 -0.088477
v 0.042676 1.642302 0.261950
v 0.057070 1.650159 -0.088477
v 0.235366 1.650159 -0.088477
v 0.235366 1.650159 0.261950
v 0.057070 1.650159 0.261950
v -0.150013 1.650159 0.261951
v -0.150014 1.650159 -0.088477
v 0.028282 1.650159 0.261950
v 0.028282 1.650159 -0.088477
v 0.104288 1.655705 -0.088477
v 0.188148 1.655705 -0.088477
v 0.188148 1.655705 0.261950
v 0.104288 1.655705 0.261950
v -0.102795 1.655705 0.261951
v -0.102795 1.655705 -0.088477
v -0.018936 1.655705 0.261950
v -0.018936 1.655705 -0.088477
vt 0.964432 0.639516
vt 0.999758 0.957672
vt 0.999757 0.639516
vt 0.929106 0.639516
vt 0.964432 0.957672
vt 0.893780 0.639517
vt 0.929106 0.957672
vt 0.858455 0.957672
vt 0.893780 0.957672
vt 0.893780 0.992998
vt 0.276814 0.982476
vt 0.287324 0.947158
vt 0.287324 0.982477
vt 0.716666 0.639517
vt 0.751992 0.957672
vt 0.751992 0.639517
vt 0.822644 0.639516
vt 0.857970 0.957672
vt 0.857970 0.639516
vt 0.787318 0.639517
vt 0.822644 0.957672
vt 0.787318 0.957672
vt 0.787318 0.992998
vt 0.786788 0.007445
vt 0.779502 0.169940
vt 0.786789 0.168122
vt 0.610204 0.639517
vt 0.645530 0.957672
vt 0.645530 0.639517
vt 0.574878 0.639517
vt 0.610204 0.957672
vt 0.680856 0.639517
vt 0.716182 0.957672
vt 0.716181 0.639517
vt 0.680856 0.957672
vt 0.610204 0.992998
vt 0.645530 0.992998
vt 0.994826 0.168121
vt 0.987540 0.005624
vt 0.987538 0.169940
vt 0.610204 0.285550
vt 0.645530 0.603706
vt 0.645530 0.285550
vt 0.574878 0.285550
vt 0.610204 0.603706
vt 0.680856 0.285550
vt 0.716181 0.603706
vt 0.716181 0.285550
vt 0.680856 0.603706
vt 0.610204 0.639032
vt 0.645530 0.639032
vt 0.976688 0.168121
vt 0.983977 0.005624
vt 0.976690 0.007442
vt 0.241498 0.387773
vt 0.035579 0.352442
vt 0.241499 0.352446
vt 0.563881 0.947160
vt 0.574391 0.387778
vt 0.574393 0.947160
vt 0.241489 0.982484
vt 0.035569 0.947154
vt 0.241489 0.947157
vt 0.035578 0.387769
vt 0.276815 0.947158
vt 0.000242 0.947153
vt 0.322647 0.992990
vt 0.287324 0.992988
vt 0.563884 0.352460
vt 0.528563 0.341945
vt 0.563885 0.341949
vt 0.528563 0.352457
vt 0.322664 0.341938
vt 0.574392 0.982486
vt 0.563882 0.387778
vt 0.574393 0.352461
vt 0.528554 0.982484
vt 0.563880 0.992998
vt 0.528554 0.992997
vt 0.881734 0.005626
vt 0.881735 0.007444
vt 0.276825 0.387773
vt 0.287339 0.352448
vt 0.276826 0.352448
vt 0.322663 0.352450
vt 0.287339 0.341936
vt 0.322647 0.982478
vt 0.287337 0.387773
vt 0.881739 0.168121
vt 0.032380 0.126173
vt 0.111563 0.139995
vt 0.111577 0.126173
vt 0.983976 0.169940
vt 0.775939 0.169940
vt 0.779500 0.005627
vt 0.775938 0.005627
vt 0.983976 0.173502
vt 0.881739 0.169939
vt 0.881739 0.173501
vt 0.779500 0.002065
vt 0.881734 0.002063
vt 0.768651 0.007445
vt 0.786787 0.000247
vt 0.881734 0.000245
vt 0.976689 0.175320
vt 0.881739 0.175320
vt 0.786788 0.175320
vt 0.779502 0.173502
vt 0.976689 0.000242
vt 0.983977 0.002061
vt 0.205242 0.126173
vt 0.284632 0.139995
vt 0.284620 0.126173
vt 0.032360 0.139995
vt 0.111548 0.147317
vt 0.331512 0.147317
vt 0.331511 0.139995
vt 0.331492 0.126173
vt 0.378383 0.139995
vt 0.378364 0.126173
vt 0.158366 0.139995
vt 0.158373 0.126173
vt 0.205241 0.139995
vt 0.697351 0.197513
vt 0.694008 0.278142
vt 0.697351 0.278142
vt 0.158368 0.147317
vt 0.205248 0.147317
vt 0.502326 0.259647
vt 0.541913 0.260338
vt 0.541919 0.259647
vt 0.284632 0.147317
vt 0.116747 0.152583
vt 0.155086 0.152583
vt 0.378409 0.147317
vt 0.643528 0.197513
vt 0.632603 0.278142
vt 0.643528 0.278142
vt 0.334807 0.152583
vt 0.363048 0.158799
vt 0.373205 0.152583
vt 0.289848 0.152583
vt 0.328249 0.152583
vt 0.649172 0.278142
vt 0.652863 0.197513
vt 0.649172 0.197513
vt 0.200036 0.152583
vt 0.647219 0.197513
vt 0.647219 0.278142
vt 0.599040 0.278142
vt 0.602383 0.197513
vt 0.599040 0.197513
vt 0.613308 0.197513
vt 0.632603 0.197513
vt 0.663788 0.197513
vt 0.683083 0.278142
vt 0.683083 0.197513
vt 0.602383 0.278142
vt 0.126894 0.158799
vt 0.144927 0.158799
vt 0.694008 0.197513
vt 0.318084 0.158799
vt 0.161637 0.152583
vt 0.189867 0.158799
vt 0.652863 0.278142
vt 0.858455 0.639517
vt 0.929106 0.992998
vt 0.716667 0.957672
vt 0.822644 0.992998
vt 0.574878 0.957672
vt 0.994827 0.007442
vt 0.574878 0.603706
vt 0.035569 0.982481
vt 0.000252 0.387769
vt 0.563880 0.982486
vt 0.768652 0.168122
vt 0.032349 0.147317
vt 0.502320 0.260338
vt 0.344987 0.158799
vt 0.613308 0.278142
vt 0.663788 0.278142
vt 0.300022 0.158799
vt 0.171806 0.158799
vn -1.000000 0.000000 0.000000
vn 0.000000 -0.000000 -1.000000
vn 1.000000 0.000000 0.000000
vn 0.000000 0.000000 1.000000
vn -0.000000 -1.000000 0.000000
vn 0.000000 1.000000 0.000000
vn 0.000000 -1.000000 0.000100
vn 0.000000 -1.000000 -0.000100
vn -0.152300 0.988300 -0.000000
vn -0.116700 0.993200 -0.000000
vn 0.479100 0.877800 0.000000
vn -0.479100 0.877800 0.000000
vn 0.152300 0.988300 0.000000
vn 0.116700 0.993200 0.000000
vn 0.000000 1.000000 -0.000100
s off
f 4/1/1 1/2/1 2/3/1
f 8/4/2 3/5/2 4/1/2
f 6/6/3 7/7/3 8/4/3
f 6/6/4 1/8/4 5/9/4
f 1/10/5 7/7/5 5/9/5
f 2/11/4 35/12/4 33/13/4
f 12/14/1 9/15/1 10/16/1
f 16/17/2 11/18/2 12/19/2
f 14/20/3 15/21/3 16/17/3
f 10/16/4 13/22/4 14/20/4
f 9/23/5 15/21/5 13/22/5
f 45/24/5 56/25/5 47/26/5
f 20/27/1 17/28/1 18/29/1
f 24/30/2 19/31/2 20/27/2
f 22/32/3 23/33/3 24/34/3
f 18/29/4 21/35/4 22/32/4
f 17/28/5 23/36/5 21/37/5
f 52/38/6 59/39/6 57/40/6
f 28/41/1 25/42/1 26/43/1
f 32/44/2 27/45/2 28/41/2
f 30/46/3 31/47/3 32/48/3
f 26/43/4 29/49/4 30/46/4
f 25/42/5 31/50/5 29/51/5
f 51/52/5 60/53/5 49/54/5
f 20/55/5 30/56/5 24/57/5
f 38/58/2 28/59/2 16/60/2
f 4/61/5 14/62/5 8/63/5
f 8/63/5 26/64/5 20/55/5
f 20/55/5 6/65/5 8/63/5
f 16/66/5 26/64/5 14/62/5
f 33/13/1 4/67/1 2/68/1
f 44/69/3 30/70/3 32/71/3
f 43/72/3 24/73/3 30/70/3
f 12/74/2 38/58/2 16/60/2
f 42/75/2 32/76/2 28/59/2
f 36/77/1 12/78/1 10/79/1
f 49/54/7 68/80/7 64/81/7
f 18/82/4 35/12/4 6/65/4
f 40/83/4 18/82/4 22/84/4
f 41/85/3 22/86/3 24/73/3
f 34/87/1 10/79/1 4/67/1
f 39/88/6 38/58/6 35/12/6
f 62/89/5 49/54/5 64/81/5
f 46/90/1 70/91/1 48/92/1
f 59/39/3 58/93/3 57/40/3
f 55/94/1 53/95/1 54/96/1
f 57/97/2 66/98/2 65/99/2
f 54/100/4 68/80/4 67/101/4
f 46/102/6 55/94/6 54/96/6
f 46/103/6 67/101/6 63/104/6
f 47/26/8 66/98/8 62/89/8
f 52/105/6 65/99/6 61/106/6
f 48/107/6 65/99/6 55/108/6
f 51/52/5 66/98/5 58/93/5
f 50/109/6 67/101/6 59/110/6
f 67/101/4 60/53/4 59/110/4
f 65/99/2 56/25/2 55/108/2
f 52/111/3 73/112/3 50/113/3
f 45/24/5 62/89/5 64/81/5
f 45/24/5 68/80/5 53/95/5
f 69/114/1 79/115/1 70/91/1
f 73/112/4 80/116/4 74/117/4
f 63/118/4 69/119/4 46/120/4
f 50/113/4 74/117/4 63/118/4
f 48/92/2 71/121/2 61/122/2
f 61/122/2 72/123/2 52/111/2
f 78/124/9 86/125/9 79/126/9
f 72/123/2 75/127/2 76/128/2
f 74/129/1 75/130/1 71/131/1
f 72/123/3 77/132/3 73/112/3
f 75/127/2 86/133/2 88/134/2
f 69/119/4 80/116/4 78/135/4
f 70/91/2 75/127/2 71/121/2
f 84/136/10 89/137/10 81/138/10
f 87/139/4 93/140/4 85/141/4
f 80/116/4 83/142/4 84/143/4
f 75/144/11 87/145/11 80/146/11
f 75/127/2 82/147/2 76/128/2
f 80/116/4 85/141/4 78/135/4
f 80/148/12 81/138/12 75/149/12
f 76/150/13 83/151/13 77/152/13
f 91/153/6 89/137/6 92/154/6
f 95/155/6 94/156/6 93/157/6
f 82/158/14 91/153/14 83/151/14
f 88/134/2 94/159/2 96/160/2
f 85/161/10 94/156/10 86/125/10
f 83/142/4 92/162/4 84/143/4
f 81/163/2 90/164/2 82/147/2
f 88/165/14 95/155/14 87/145/14
f 4/1/1 3/5/1 1/2/1
f 8/4/2 7/7/2 3/5/2
f 6/6/3 5/9/3 7/7/3
f 6/6/4 2/166/4 1/8/4
f 1/10/5 3/167/5 7/7/5
f 2/11/4 6/65/4 35/12/4
f 12/14/1 11/168/1 9/15/1
f 16/17/2 15/21/2 11/18/2
f 14/20/3 13/22/3 15/21/3
f 10/16/4 9/15/4 13/22/4
f 9/23/5 11/169/5 15/21/5
f 45/24/5 53/95/5 56/25/5
f 20/27/1 19/31/1 17/28/1
f 24/30/2 23/170/2 19/31/2
f 22/32/3 21/35/3 23/33/3
f 18/29/4 17/28/4 21/35/4
f 17/28/5 19/31/5 23/36/5
f 52/38/6 50/171/6 59/39/6
f 28/41/1 27/45/1 25/42/1
f 32/44/2 31/172/2 27/45/2
f 30/46/3 29/49/3 31/47/3
f 26/43/4 25/42/4 29/49/4
f 25/42/5 27/45/5 31/50/5
f 51/52/5 58/93/5 60/53/5
f 20/55/5 26/64/5 30/56/5
f 38/58/2 42/75/2 28/59/2
f 4/61/5 10/173/5 14/62/5
f 8/63/5 14/62/5 26/64/5
f 20/55/5 18/82/5 6/65/5
f 16/66/5 28/174/5 26/64/5
f 33/13/1 34/87/1 4/67/1
f 44/69/3 43/72/3 30/70/3
f 43/72/3 41/85/3 24/73/3
f 12/74/2 37/175/2 38/58/2
f 42/75/2 44/69/2 32/76/2
f 36/77/1 37/175/1 12/78/1
f 49/54/8 60/53/8 68/80/8
f 18/82/4 39/88/4 35/12/4
f 40/83/4 39/88/4 18/82/4
f 41/85/3 40/83/3 22/86/3
f 34/87/1 36/77/1 10/79/1
f 34/87/6 33/13/6 35/12/6
f 39/88/6 40/83/6 41/85/6
f 34/87/6 38/58/6 36/77/6
f 37/175/6 36/77/6 38/58/6
f 42/75/6 38/58/6 39/88/6
f 43/72/6 44/69/6 42/75/6
f 39/88/6 41/85/6 43/72/6
f 34/87/6 35/12/6 38/58/6
f 43/72/6 42/75/6 39/88/6
f 62/89/5 51/52/5 49/54/5
f 46/90/1 69/114/1 70/91/1
f 59/39/3 60/53/3 58/93/3
f 55/94/1 56/25/1 53/95/1
f 57/97/2 58/93/2 66/98/2
f 54/100/4 53/95/4 68/80/4
f 46/102/6 48/176/6 55/94/6
f 46/103/15 54/100/15 67/101/15
f 47/26/5 56/25/5 66/98/5
f 52/105/6 57/97/6 65/99/6
f 48/107/6 61/106/6 65/99/6
f 51/52/5 62/89/5 66/98/5
f 50/109/6 63/104/6 67/101/6
f 67/101/4 68/80/4 60/53/4
f 65/99/2 66/98/2 56/25/2
f 52/111/3 72/123/3 73/112/3
f 45/24/5 47/26/5 62/89/5
f 45/24/7 64/81/7 68/80/7
f 69/114/1 78/177/1 79/115/1
f 73/112/4 77/132/4 80/116/4
f 63/118/4 74/117/4 69/119/4
f 50/113/4 73/112/4 74/117/4
f 48/92/2 70/91/2 71/121/2
f 61/122/2 71/121/2 72/123/2
f 78/124/9 85/161/9 86/125/9
f 72/123/2 71/121/2 75/127/2
f 74/129/1 80/178/1 75/130/1
f 72/123/3 76/128/3 77/132/3
f 75/127/2 79/115/2 86/133/2
f 69/119/4 74/117/4 80/116/4
f 70/91/2 79/115/2 75/127/2
f 84/136/10 92/154/10 89/137/10
f 87/139/4 95/179/4 93/140/4
f 80/116/4 77/132/4 83/142/4
f 75/144/11 88/165/11 87/145/11
f 75/127/2 81/163/2 82/147/2
f 80/116/4 87/139/4 85/141/4
f 80/148/12 84/136/12 81/138/12
f 76/150/13 82/158/13 83/151/13
f 91/153/6 90/180/6 89/137/6
f 95/155/6 96/181/6 94/156/6
f 82/158/14 90/180/14 91/153/14
f 88/134/2 86/133/2 94/159/2
f 85/161/10 93/157/10 94/156/10
f 83/142/4 91/182/4 92/162/4
f 81/163/2 89/183/2 90/164/2
f 88/165/14 96/181/14 95/155/14
