# Blender v2.77 (sub 0) OBJ File: 'Modele.blend'
# www.blender.org
o Ksiazka_Cube
v 0.721419 -0.200000 -1.000000
v 0.721419 -0.200000 1.000000
v -0.703372 -0.200000 1.000000
v -0.703372 -0.200000 -1.000000
v 0.721419 0.200000 -1.000000
v 0.721419 0.200000 1.000001
v -0.703373 0.200000 1.000000
v -0.703372 0.200000 -1.000000
v 0.721419 -0.158566 -1.000000
v 0.721419 0.158566 -1.000000
v 0.721419 -0.158566 1.000000
v 0.721419 0.158566 1.000000
v -0.714237 -0.158566 1.000000
v -0.714237 0.158566 1.000000
v -0.714237 -0.158566 -1.000000
v -0.714237 0.158566 -1.000000
v 0.721419 -0.200000 -0.953135
v 0.721419 -0.200000 0.953135
v -0.703372 -0.200000 0.953135
v -0.703372 -0.200000 -0.953135
v 0.721419 0.200000 -0.953135
v 0.721419 0.200000 0.953135
v -0.703373 0.200000 0.953135
v -0.703372 0.200000 -0.953135
v -0.714237 -0.158566 -0.953135
v -0.714237 0.158566 -0.953135
v 0.721419 -0.158566 -0.953135
v 0.721419 -0.158566 0.953135
v 0.721419 0.158566 -0.953135
v 0.721419 0.158566 0.953135
v 0.695466 -0.200000 -1.000000
v 0.695466 -0.200000 1.000000
v 0.695466 0.200000 -0.999999
v 0.695466 0.200000 1.000001
v 0.695466 -0.158566 -1.000000
v 0.695466 -0.158566 1.000000
v 0.695466 0.200000 -0.953135
v 0.695466 0.200000 0.953135
v 0.695466 -0.200000 -0.953135
v 0.695466 -0.200000 0.953135
v -0.714237 0.158566 0.953135
v 0.695466 0.158566 -1.000000
v -0.714237 -0.158566 0.953135
v 0.695466 0.158566 1.000000
v 0.695466 -0.158566 -0.953135
v 0.695466 -0.158566 0.953135
v 0.695466 0.158566 -0.953135
v 0.695466 0.158566 0.953135
v -0.732864 0.000000 1.000000
v -0.732864 0.000000 -1.000000
v -0.714237 -0.158566 -0.976568
v -0.714237 0.158566 -0.976568
v -0.714237 -0.158566 0.976568
v -0.732864 0.000000 -0.953135
v -0.714237 0.158566 0.976568
v -0.714237 -0.158566 0.000000
v -0.714237 0.158566 0.000000
v -0.732864 0.000000 0.953135
v -0.732864 0.000000 0.000000
v -0.732864 0.000000 0.976568
v -0.732864 0.000000 -0.976568
vt 0.912401 0.318809
vt 0.554500 0.353208
vt 0.912401 0.353208
vt 0.406560 0.353208
vt 0.086142 0.319172
vt 0.067939 0.353208
vt 0.036217 0.353208
vt 0.022700 0.318269
vt 0.022871 0.353208
vt 0.086142 0.304771
vt 0.406560 0.333230
vt 0.427036 0.324761
vt 0.406560 0.912490
vt 0.436468 0.920331
vt 0.438094 0.912112
vt 0.912401 0.945345
vt 0.554500 0.910747
vt 0.533031 0.919116
vt 0.067939 0.954003
vt 0.067939 0.939669
vt 0.528870 0.887568
vt 0.530654 0.911740
vt 0.554500 0.887568
vt 0.526846 0.331736
vt 0.483339 0.325581
vt 0.483339 0.332331
vt 0.912401 0.304595
vt 0.554500 0.332554
vt 0.931111 0.887568
vt 0.955682 0.353208
vt 0.946286 0.353208
vt 0.937541 0.318362
vt 0.937777 0.353208
vt 0.028522 0.887568
vt 0.038257 0.887568
vt 0.013270 0.353208
vt 0.939958 0.933461
vt 0.940724 0.887568
vt 0.930660 0.933014
vt 0.922358 0.887568
vt 0.921196 0.932114
vt 0.530654 0.911740
vt 0.483339 0.887568
vt 0.483339 0.911740
vt 0.439942 0.625894
vt 0.483339 0.887568
vt 0.483339 0.625319
vt 0.526846 0.331736
vt 0.527357 0.353208
vt 0.527029 0.624945
vt 0.440708 0.353208
vt 0.429738 0.332068
vt 0.406560 0.887568
vt 0.441003 0.887568
vt 0.053100 0.940266
vt 0.038694 0.940969
vt 0.051919 0.887568
vt 0.067939 0.887568
vt 0.912401 0.887568
vt 0.912401 0.931556
vt 0.029266 0.941406
vt 0.932235 0.304215
vt 0.946473 0.318078
vt 0.955520 0.317942
vt 0.035980 0.954695
vt 0.912865 0.945993
vt 0.036587 0.318685
vt 0.037188 0.304395
vt 0.536848 0.925577
vt 0.067939 0.966829
vt 0.431884 0.934705
vt 0.431462 0.928283
vt 0.912401 0.291676
vt 0.534193 0.310406
vt 0.534392 0.316871
vt 0.422238 0.317384
vt 0.307607 0.149934
vt 0.023055 0.025251
vt 0.023055 0.149934
vt 0.692393 0.149934
vt 0.307607 0.025251
vt 0.692393 0.025251
vt 0.976945 0.149934
vt 0.976945 0.025251
vt 0.483339 0.353208
vt 0.441003 0.887568
vt 0.438094 0.912112
vt 0.483339 0.918782
vt 0.436468 0.920331
vt 0.533192 0.919116
vt 0.429738 0.332068
vt 0.427036 0.324761
vt 0.483339 0.353208
vt 0.440708 0.353208
vt 0.527357 0.353208
vt 0.529529 0.324445
vt 0.529529 0.324445
vt 0.013554 0.318111
vt 0.528781 0.887568
vt 0.912401 0.957613
vt 0.536916 0.931718
vt 0.086142 0.291676
vt 0.422442 0.310831
vt 0.019295 0.087593
vt 0.980705 0.087593
vn 0.000000 -1.000000 0.000000
vn 0.000000 1.000000 0.000000
vn 1.000000 0.000000 0.000000
vn -0.000000 0.000000 1.000000
vn -0.967300 0.253600 0.000000
vn 0.000000 0.000000 -1.000000
vn -0.967300 -0.253600 -0.000000
vn -0.993200 0.116700 -0.000000
vn -0.993200 -0.116700 -0.000000
s off
f 32/1/1 19/2/1 40/3/1
f 23/4/2 34/5/2 38/6/2
f 22/7/3 12/8/3 30/9/3
f 44/10/4 7/11/4 14/12/4
f 8/13/5 16/14/5 52/15/5
f 35/16/6 4/17/6 15/18/6
f 42/19/6 8/13/6 33/20/6
f 25/21/7 51/22/7 20/23/7
f 52/24/8 50/25/8 61/26/8
f 36/27/4 3/28/4 32/1/4
f 27/29/2 46/30/2 28/31/2
f 28/31/3 2/32/3 18/33/3
f 30/9/1 47/34/1 29/35/1
f 12/8/1 48/36/1 30/9/1
f 27/29/2 35/37/2 45/38/2
f 9/39/3 17/40/3 1/41/3
f 27/29/3 18/33/3 17/40/3
f 55/42/8 58/43/8 60/44/8
f 57/45/8 54/46/8 59/47/8
f 53/48/7 43/49/7 19/2/7
f 43/49/7 56/50/7 19/2/7
f 23/4/5 41/51/5 55/52/5
f 24/53/5 26/54/5 57/45/5
f 5/55/3 29/35/3 10/56/3
f 21/57/3 30/9/3 29/35/3
f 8/13/2 37/58/2 33/20/2
f 37/58/2 23/4/2 38/6/2
f 39/59/1 4/17/1 31/60/1
f 40/3/1 20/23/1 39/59/1
f 18/33/1 39/59/1 17/40/1
f 17/40/1 31/60/1 1/41/1
f 37/58/2 22/7/2 21/57/2
f 33/20/2 21/57/2 5/55/2
f 29/35/1 42/61/1 10/56/1
f 11/62/4 32/1/4 2/32/4
f 11/63/2 46/30/2 36/64/2
f 10/65/6 33/20/6 5/55/6
f 1/41/6 35/16/6 9/66/6
f 6/67/4 44/10/4 12/68/4
f 38/6/2 6/67/2 22/7/2
f 18/33/1 32/1/1 40/3/1
f 15/18/2 51/69/2 35/16/2
f 47/70/1 26/71/1 52/72/1
f 46/73/2 43/74/2 53/75/2
f 14/12/1 55/76/1 44/10/1
f 46/77/4 41/78/4 43/79/4
f 45/80/3 48/81/3 46/77/3
f 47/82/6 25/83/6 26/84/6
f 59/47/9 25/21/9 56/50/9
f 58/85/9 56/50/9 43/49/9
f 41/51/8 59/47/8 58/85/8
f 60/44/9 43/86/9 53/87/9
f 49/88/9 53/87/9 13/89/9
f 14/90/8 60/44/8 49/88/8
f 51/91/9 50/25/9 15/92/9
f 54/93/9 51/91/9 25/94/9
f 26/95/8 61/26/8 54/93/8
f 32/1/1 3/28/1 19/2/1
f 23/4/2 7/11/2 34/5/2
f 22/7/3 6/67/3 12/8/3
f 44/10/4 34/5/4 7/11/4
f 52/15/5 26/54/5 24/53/5
f 24/53/5 8/13/5 52/15/5
f 35/16/6 31/60/6 4/17/6
f 42/19/6 16/14/6 8/13/6
f 4/17/7 20/23/7 51/22/7
f 51/22/7 15/18/7 4/17/7
f 52/24/8 16/96/8 50/25/8
f 36/27/4 13/97/4 3/28/4
f 27/29/2 45/38/2 46/30/2
f 28/31/3 11/63/3 2/32/3
f 30/9/1 48/36/1 47/34/1
f 12/8/1 44/98/1 48/36/1
f 27/29/2 9/39/2 35/37/2
f 9/39/3 27/29/3 17/40/3
f 27/29/3 28/31/3 18/33/3
f 55/42/8 41/99/8 58/43/8
f 57/45/8 26/54/8 54/46/8
f 19/2/7 3/28/7 53/48/7
f 13/97/7 53/48/7 3/28/7
f 20/23/7 19/2/7 56/50/7
f 56/50/7 25/21/7 20/23/7
f 55/52/5 14/12/5 7/11/5
f 7/11/5 23/4/5 55/52/5
f 57/45/5 41/51/5 23/4/5
f 23/4/5 24/53/5 57/45/5
f 5/55/3 21/57/3 29/35/3
f 21/57/3 22/7/3 30/9/3
f 8/13/2 24/53/2 37/58/2
f 37/58/2 24/53/2 23/4/2
f 39/59/1 20/23/1 4/17/1
f 40/3/1 19/2/1 20/23/1
f 18/33/1 40/3/1 39/59/1
f 17/40/1 39/59/1 31/60/1
f 37/58/2 38/6/2 22/7/2
f 33/20/2 37/58/2 21/57/2
f 29/35/1 47/34/1 42/61/1
f 11/62/4 36/27/4 32/1/4
f 11/63/2 28/31/2 46/30/2
f 10/65/6 42/19/6 33/20/6
f 1/41/6 31/60/6 35/16/6
f 6/67/4 34/5/4 44/10/4
f 38/6/2 34/5/2 6/67/2
f 18/33/1 2/32/1 32/1/1
f 45/100/2 35/16/2 51/69/2
f 51/69/2 25/101/2 45/100/2
f 52/72/1 16/14/1 42/19/1
f 42/19/1 47/70/1 52/72/1
f 53/75/2 13/97/2 36/27/2
f 36/27/2 46/73/2 53/75/2
f 48/102/1 44/10/1 55/76/1
f 55/76/1 41/103/1 48/102/1
f 58/104/4 43/79/4 41/78/4
f 46/77/4 48/81/4 41/78/4
f 45/80/3 47/82/3 48/81/3
f 54/105/6 26/84/6 25/83/6
f 47/82/6 45/80/6 25/83/6
f 59/47/9 54/46/9 25/21/9
f 58/85/9 59/47/9 56/50/9
f 41/51/8 57/45/8 59/47/8
f 60/44/9 58/43/9 43/86/9
f 49/88/9 60/44/9 53/87/9
f 14/90/8 55/42/8 60/44/8
f 51/91/9 61/26/9 50/25/9
f 54/93/9 61/26/9 51/91/9
f 26/95/8 52/24/8 61/26/8
