# Blender v2.77 (sub 0) OBJ File: 'Modele.blend'
# www.blender.org
o Banknot_Plane
v -0.068160 1.113934 -0.469756
v -0.071356 1.436222 -0.841301
v -0.065955 0.964396 -0.602026
v -0.067000 1.260856 -0.978760
v 0.057021 1.113860 -0.469816
v 0.106568 1.436347 -0.841197
v 0.037554 0.973405 -0.610345
v 0.102212 1.260719 -0.978873
v -0.044489 1.249196 -0.665766
v -0.101220 1.382573 -0.902817
v -0.041014 1.119174 -0.772920
v -0.095530 1.051268 -0.510597
v 0.017606 1.252953 -0.997070
v 0.066312 1.119174 -0.772920
v -0.004991 0.945740 -0.607284
v 0.136432 1.382677 -0.902731
v 0.073359 1.249196 -0.665766
v 0.069485 1.058144 -0.515242
v 0.017606 1.463944 -0.829453
v -0.003837 1.136143 -0.446328
v -0.029099 0.794394 -0.132994
v 0.014435 1.270035 -0.650730
v 0.094795 1.201341 -0.707514
v 0.014435 1.108010 -0.783458
v -0.068949 1.201341 -0.707514
v -0.070301 0.899583 -0.317987
v -0.055803 0.993863 -0.283826
v 0.007102 0.796453 -0.466123
v -0.056827 0.816151 -0.466347
v 0.050723 0.944891 -0.344481
v 0.034725 0.875259 -0.524809
v -0.001955 1.017068 -0.258138
v 0.046634 1.001430 -0.287900
v 0.008488 0.845596 -0.274246
v -0.029279 0.836132 -0.114909
v 0.007515 0.820017 -0.082657
v 0.039401 0.824529 -0.100858
v 0.042130 0.785845 -0.117008
v 0.011997 0.766548 -0.100624
v 0.000259 0.687009 -0.390368
v -0.050899 0.714444 -0.393393
v -0.063797 0.815603 -0.260217
v -0.003373 0.786957 -0.230464
v -0.101245 1.344339 -0.934825
v -0.095079 1.314384 -0.951216
v -0.088089 1.285810 -0.965161
v 0.065513 1.027680 -0.549745
v 0.060106 1.009135 -0.571662
v 0.053710 0.991874 -0.592517
v -0.086742 0.984511 -0.584941
v -0.093219 1.002165 -0.563960
v -0.098158 1.021094 -0.541925
v 0.123301 1.285696 -0.965256
v 0.130291 1.314317 -0.951272
v 0.136457 1.344336 -0.934827
v 0.095150 1.173970 -0.729880
v 0.089971 1.155552 -0.744756
v 0.083340 1.137768 -0.759109
v -0.058042 1.137768 -0.759109
v -0.064673 1.155552 -0.744756
v -0.069852 1.173970 -0.729880
v 0.048473 0.930312 -0.428299
v 0.044998 0.908868 -0.466296
v 0.040525 0.888154 -0.496919
v -0.078198 0.840898 -0.443978
v -0.084615 0.864217 -0.415168
v -0.087578 0.886131 -0.382108
v 0.015880 0.785188 -0.406540
v 0.015919 0.805695 -0.365038
v 0.017538 0.828088 -0.324245
v -0.058003 0.726053 -0.355322
v -0.062380 0.752700 -0.315957
v -0.065856 0.783354 -0.281002
v 0.002350 0.692160 -0.344018
v 0.001258 0.719126 -0.295543
v 0.000920 0.750776 -0.251833
v -0.043369 0.713583 -0.182441
v -0.044654 0.730704 -0.162026
v 0.004510 0.705747 -0.134272
v 0.005640 0.687851 -0.157620
v -0.041806 0.661426 -0.207355
v -0.043523 0.678375 -0.185608
v 0.002302 0.634998 -0.190262
v 0.001786 0.652275 -0.164801
v -0.038790 0.638821 -0.259928
v -0.040520 0.655503 -0.237877
v 0.003179 0.611698 -0.250563
v 0.002520 0.628706 -0.224797
v 0.007843 0.580926 -0.306122
v -0.033489 0.608175 -0.308009
v -0.035592 0.623707 -0.286023
v 0.007609 0.596215 -0.280671
v -0.015103 0.649418 -0.100936
v -0.016265 0.662656 -0.083338
v 0.021693 0.641904 -0.060650
v 0.022299 0.628490 -0.080160
v -0.014520 0.591459 -0.123609
v -0.015595 0.604696 -0.106010
v 0.018337 0.569951 -0.109139
v 0.017780 0.583365 -0.089630
v -0.011945 0.570203 -0.180565
v -0.013020 0.583441 -0.162967
v 0.019280 0.548116 -0.172403
v 0.018724 0.561529 -0.152893
v 0.025386 0.514761 -0.230117
v -0.006708 0.537428 -0.231973
v -0.007870 0.550666 -0.214375
v 0.024780 0.528175 -0.210608
v 0.006265 0.814473 -0.200099
v -0.050806 0.849369 -0.223231
v -0.043840 0.915395 -0.196427
v 0.003421 0.927475 -0.171059
v 0.044200 0.915510 -0.192342
v 0.046017 0.863923 -0.218867
v -0.054505 1.597602 -1.011681
v -0.050677 1.398332 -1.167271
v 0.089717 1.597602 -1.011681
v 0.085889 1.398332 -1.167271
v -0.067925 1.549793 -1.094925
v 0.017606 1.405127 -1.196017
v 0.103137 1.549793 -1.094925
v 0.017606 1.628344 -1.023889
v 0.017606 1.595814 -1.145049
v -0.068146 1.505868 -1.130959
v -0.063909 1.470675 -1.149220
v -0.059008 1.436402 -1.165416
v 0.094220 1.436402 -1.165416
v 0.099121 1.470675 -1.149220
v 0.103358 1.505868 -1.130959
v 0.017606 1.468985 -1.217665
v 0.017606 1.509870 -1.204339
v 0.017606 1.549563 -1.187126
v 0.228040 0.791955 -0.267648
v 0.228040 0.398301 0.571231
v -0.228040 0.865840 -0.232976
v -0.228040 0.472186 0.605903
v -0.229325 0.859342 -0.236025
v 0.226756 0.785457 -0.270697
v 0.226756 0.391803 0.568182
v -0.229325 0.465688 0.602853
vt 0.000264 0.757685
vt 0.484365 0.999736
vt 0.000264 0.999736
vt 0.512481 0.319449
vt 0.028380 0.561499
vt 0.028380 0.319449
vt 0.928324 0.562457
vt 0.926030 0.583759
vt 0.927851 0.563123
vt 0.894526 0.584290
vt 0.896821 0.562987
vt 0.894999 0.583624
vt 0.926488 0.584290
vt 0.896363 0.562457
vt 0.484365 0.757685
vt 0.512481 0.561499
vt 0.363126 0.116592
vt 0.492945 0.106370
vt 0.492492 0.124041
vt 0.366397 0.067668
vt 0.484456 0.049125
vt 0.496614 0.073101
vt 0.272563 0.629395
vt 0.398575 0.650660
vt 0.272415 0.664656
vt 0.358186 0.204621
vt 0.489114 0.254418
vt 0.355559 0.242028
vt 0.497326 0.176901
vt 0.604469 0.238093
vt 0.490767 0.217272
vt 0.143908 0.723648
vt 0.028000 0.757157
vt 0.015018 0.741241
vt 0.228933 0.044363
vt 0.116034 0.003363
vt 0.238641 0.000264
vt 0.217104 0.136780
vt 0.101840 0.109990
vt 0.221342 0.120183
vt 0.215099 0.161250
vt 0.098395 0.126911
vt 0.553232 0.049673
vt 0.604980 0.063831
vt 0.478654 0.668099
vt 0.396585 0.674862
vt 0.591658 0.299656
vt 0.480096 0.289060
vt 0.354728 0.278350
vt 0.216539 0.299656
vt 0.217617 0.203856
vt 0.211266 0.250658
vt 0.273575 0.683213
vt 0.134356 0.690507
vt 0.136942 0.620455
vt 0.132651 0.665053
vt 0.364673 0.100261
vt 0.229554 0.087237
vt 0.368895 0.038339
vt 0.359964 0.163965
vt 0.225896 0.104395
vt 0.514937 0.735624
vt 0.468287 0.709260
vt 0.541204 0.716732
vt 0.719978 0.098061
vt 0.770714 0.103749
vt 0.772580 0.122640
vt 0.822717 0.648194
vt 0.854336 0.675041
vt 0.797898 0.676095
vt 0.691526 0.242671
vt 0.702401 0.199366
vt 0.729993 0.229948
vt 0.604555 0.271573
vt 0.396530 0.612416
vt 0.504885 0.632125
vt 0.598422 0.098217
vt 0.597898 0.119081
vt 0.795145 0.138513
vt 0.763667 0.133688
vt 0.795145 0.101178
vt 0.708386 0.119729
vt 0.872054 0.639548
vt 0.880040 0.658265
vt 0.709757 0.151182
vt 0.775194 0.150157
vt 0.762840 0.048772
vt 0.728488 0.070402
vt 0.599296 0.729545
vt 0.654138 0.757142
vt 0.583872 0.748403
vt 0.719437 0.774429
vt 0.783095 0.797708
vt 0.716013 0.811429
vt 0.716013 0.833405
vt 0.794757 0.816542
vt 0.570950 0.645703
vt 0.613373 0.674206
vt 0.557132 0.670367
vt 0.549699 0.693790
vt 0.608025 0.701855
vt 0.645792 0.207715
vt 0.707078 0.178612
vt 0.487088 0.804636
vt 0.568077 0.785183
vt 0.567245 0.810878
vt 0.484894 0.897957
vt 0.565667 0.873474
vt 0.568177 0.899705
vt 0.609115 0.652531
vt 0.672138 0.666244
vt 0.678132 0.696321
vt 0.591679 0.844726
vt 0.635270 0.882204
vt 0.605327 0.159198
vt 0.625560 0.188556
vt 0.495967 0.154225
vt 0.600526 0.138739
vt 0.494227 0.138823
vt 0.472167 0.690146
vt 0.361319 0.143760
vt 0.362247 0.130114
vt 0.148419 0.741307
vt 0.276130 0.708314
vt 0.278868 0.723101
vt 0.274802 0.695854
vt 0.138911 0.707697
vt 0.393887 0.704793
vt 0.394572 0.720764
vt 0.395233 0.690192
vt 0.462695 0.724623
vt 0.092669 0.202621
vt 0.113262 0.075742
vt 0.100493 0.038979
vt 0.088407 0.284087
vt 0.074287 0.242434
vt 0.013349 0.622633
vt 0.008752 0.722357
vt 0.002896 0.702308
vt 0.636477 0.896732
vt 0.683737 0.887640
vt 0.683197 0.896356
vt 0.771599 0.188717
vt 0.772687 0.202402
vt 0.741526 0.151711
vt 0.797031 0.224054
vt 0.819810 0.204791
vt 0.842646 0.209467
vt 0.595620 0.844197
vt 0.644306 0.813110
vt 0.666920 0.834225
vt 0.643679 0.798552
vt 0.598981 0.757685
vt 0.694025 0.806710
vt 0.693635 0.815633
vt 0.663761 0.726531
vt 0.596047 0.929254
vt 0.658288 0.916383
vt 0.819025 0.195955
vt 0.826414 0.836593
vt 0.858577 0.794489
vt 0.884161 0.808968
vt 0.792506 0.767256
vt 0.853843 0.781401
vt 0.842646 0.194776
vt 0.715484 0.819611
vt 0.703609 0.898910
vt 0.899970 0.773110
vt 0.921193 0.777720
vt 0.901225 0.781437
vt 0.681660 0.680655
vt 0.732895 0.692429
vt 0.864759 0.757685
vt 0.675067 0.651129
vt 0.723818 0.663096
vt 0.667438 0.710795
vt 0.717034 0.722938
vt 0.799048 0.172123
vt 0.667614 0.782191
vt 0.658024 0.742142
vt 0.707441 0.754270
vt 0.655484 0.864141
vt 0.721451 0.000264
vt 0.673241 0.035243
vt 0.626089 0.140739
vt 0.781323 0.639083
vt 0.808921 0.616158
vt 0.658810 0.069127
vt 0.641667 0.097958
vt 0.741453 0.676095
vt 0.075384 0.058070
vt 0.104958 0.092562
vt 0.064545 0.088308
vt 0.051529 0.143565
vt 0.046360 0.201448
vt 0.000264 0.194656
vt 0.024441 0.065411
vt 0.006408 0.105528
vt 0.001422 0.138011
vt 0.059775 0.104358
vt 0.055928 0.120468
vt 0.014057 0.084981
vt 0.094635 0.151820
vt 0.000264 0.672404
vt 0.506348 0.590241
vt 0.626089 0.175616
vt 0.484894 0.782813
vt 0.484894 0.877193
vt 0.715484 0.804098
vt 0.704059 0.882841
vt 0.918103 0.761331
vt 0.735524 0.680354
vt 0.726816 0.651078
vt 0.719625 0.710820
vt 0.709774 0.742132
vt 0.736052 0.590241
vt 0.034065 0.044786
vn 0.176200 0.891100 0.418200
vn -0.176200 -0.891100 -0.418200
vn 0.000000 -0.424800 0.905300
vn 0.000000 0.424800 -0.905300
vn -0.984400 0.159500 0.074800
vn 0.984400 -0.159500 -0.074800
vn -0.896100 -0.347300 -0.276400
vn -0.570200 -0.573700 -0.588000
vn -0.903800 -0.283500 -0.320600
vn 0.022900 -0.792200 -0.609900
vn 0.643300 -0.572600 -0.508200
vn 0.044300 -0.700000 -0.712800
vn 0.747700 0.441800 0.495700
vn 0.995400 -0.027800 0.091600
vn 0.978600 0.035200 0.202800
vn -0.724400 0.524400 0.447400
vn 0.000500 0.833500 0.552400
vn 0.010800 0.746200 0.665500
vn -0.979500 0.171300 0.105900
vn -0.810400 0.425000 0.403200
vn -0.751600 0.556900 0.353600
vn 0.914800 -0.342700 -0.213800
vn 0.601000 -0.420200 -0.679900
vn 0.794300 -0.021900 -0.607100
vn 0.002200 -0.814400 -0.580300
vn 0.549900 -0.695500 -0.462500
vn -0.996000 -0.062200 -0.064300
vn -0.859000 0.129900 -0.495200
vn -0.980000 -0.155200 -0.124300
vn -0.986500 0.119100 0.112200
vn -0.864600 0.243500 -0.439500
vn 0.748000 -0.508700 -0.426300
vn 0.467400 -0.627900 -0.622300
vn 0.979900 -0.198600 0.019600
vn 0.982900 -0.183800 -0.010800
vn 0.848000 0.415100 0.329300
vn 0.812800 0.455200 0.363500
vn 0.703400 0.487700 0.517000
vn -0.701200 0.497500 0.510600
vn 0.000200 0.715300 0.698800
vn 0.984900 -0.166800 0.045600
vn 0.996100 -0.071700 -0.050600
vn 0.986400 0.107800 0.123500
vn -0.558300 -0.648600 -0.517300
vn -0.549700 -0.687000 -0.475100
vn 0.575000 -0.686900 -0.444400
vn -0.981700 0.142300 0.126100
vn -0.913600 -0.335200 -0.230200
vn 0.966500 -0.252100 -0.049000
vn 0.979900 -0.194100 -0.044300
vn 0.004200 0.682900 0.730500
vn -0.775900 0.171900 0.607000
vn -0.105600 0.098100 0.989500
vn 0.137100 -0.875500 -0.463300
vn -0.765300 -0.637900 0.085300
vn -0.848000 -0.518400 -0.109600
vn 0.834800 -0.520800 0.178400
vn -0.727900 0.374700 0.574100
vn 0.653700 0.501100 0.567100
vn -0.006900 0.776600 0.629900
vn 0.990400 -0.134900 0.030900
vn -0.572400 -0.543400 -0.614100
vn -0.936000 -0.277400 -0.216700
vn -0.021500 -0.890300 0.454900
vn 0.759500 0.186900 0.623100
vn 0.854100 0.357200 0.378100
vn 0.809400 -0.576300 0.113000
vn 0.931500 -0.330100 -0.152700
vn -0.815800 0.344100 0.464800
vn 0.992600 -0.089500 0.081200
vn 0.500200 -0.595400 -0.628700
vn 0.527900 -0.552100 -0.645400
vn -0.700600 -0.483100 -0.525100
vn -0.969700 -0.243000 -0.023300
vn 0.986400 -0.062400 0.152100
vn 0.977800 -0.167400 0.125900
vn 0.984600 -0.162400 0.064900
vn 0.989600 -0.095500 0.107900
vn -0.965000 0.030700 0.260500
vn -0.984700 -0.113000 0.132500
vn -0.992200 -0.019100 0.122600
vn -0.979100 -0.197400 0.048000
vn -0.986800 -0.158800 -0.031300
vn 0.673200 -0.553100 -0.490800
vn 0.606200 -0.603400 -0.518100
vn -0.777000 -0.553300 -0.300100
vn -0.998300 -0.015400 -0.056500
vn -0.980200 -0.119100 -0.157800
vn 0.980100 -0.198100 0.009400
vn -0.995600 -0.072600 -0.059100
vn -0.969900 -0.188700 -0.153900
vn 0.891300 -0.421500 -0.167100
vn 0.960300 -0.275600 -0.042700
vn 0.980600 -0.163400 -0.107900
vn 0.921300 -0.333800 -0.199300
vn 0.969700 -0.235500 -0.065300
vn -0.666100 0.720800 0.191700
vn -0.601100 -0.420200 -0.679800
vn 0.000000 -0.508400 -0.861100
vn 0.666100 0.720800 0.191700
vn 0.000000 0.987300 0.158500
vn 0.859000 0.129900 -0.495200
vn 0.864600 0.243500 -0.439500
vn -0.680000 0.334500 0.652400
vn -0.735400 -0.676100 -0.045800
vn -0.534600 0.180400 0.825600
vn -0.729700 -0.626900 -0.273100
vn -0.723000 0.408900 0.556800
vn 0.671700 0.613800 0.414700
vn -0.659700 0.141200 0.738100
vn 0.391700 -0.172600 0.903700
vn -0.720000 0.346700 0.601200
vn 0.726200 0.540700 0.424600
vn -0.745900 -0.587800 -0.313300
vn -0.701600 -0.705800 -0.097600
vn -0.610700 0.167900 0.773800
vn 0.550600 -0.631300 -0.546200
vn 0.775100 0.497500 0.389400
vn -0.648500 -0.751700 -0.119400
vn -0.648300 0.306500 0.696900
vn 0.817700 0.456800 0.350400
vn -0.782600 -0.508600 -0.359000
vn 0.468200 -0.879500 0.085000
vn 0.403100 -0.211500 0.890300
vn 0.440000 -0.241000 0.865000
vn -0.742000 -0.670400 -0.003300
vn 0.493600 -0.263100 0.828900
vn -0.464300 0.160400 0.871000
vn 0.443100 -0.895000 0.051500
vn 0.439500 -0.898200 0.010000
vn 0.446100 -0.893800 -0.046100
vn -0.794300 -0.022000 -0.607100
vn 0.000000 0.055300 -0.998400
vn 0.000000 0.817300 -0.576200
vn 0.850200 0.437500 -0.292800
vn 0.000000 0.356900 -0.934100
vn 0.000000 0.547200 -0.837000
vn -0.850200 0.437500 -0.292800
s off
f 135/1/1 134/2/1 133/3/1
f 139/4/2 137/5/2 138/6/2
f 134/7/3 140/8/3 139/9/3
f 135/10/4 138/11/4 137/12/4
f 136/13/5 137/12/5 140/8/5
f 133/14/6 139/9/6 138/11/6
f 135/1/1 136/15/1 134/2/1
f 139/4/2 140/16/2 137/5/2
f 134/7/3 136/13/3 140/8/3
f 135/10/4 133/14/4 138/11/4
f 136/13/5 135/10/5 137/12/5
f 133/14/6 134/7/6 139/9/6
s 1
f 59/17/7 3/18/8 50/19/9
f 24/20/10 7/21/11 15/22/12
f 17/23/13 18/24/14 23/25/15
f 9/26/16 20/27/17 22/28/18
f 12/29/19 27/30/20 1/31/21
f 53/32/22 118/33/23 127/34/24
f 13/35/25 118/36/23 8/37/26
f 44/38/27 125/39/28 45/40/29
f 10/41/30 124/42/31 44/38/27
f 15/22/12 31/43/32 28/44/33
f 18/24/14 62/45/34 47/46/35
f 20/27/17 33/47/36 5/48/37
f 22/28/18 5/48/37 17/49/13
f 6/50/38 22/28/18 17/49/13
f 2/51/39 22/28/18 19/52/40
f 23/25/15 47/46/35 56/53/41
f 55/54/42 23/25/15 56/53/41
f 6/55/38 23/25/15 16/56/43
f 11/57/44 15/22/12 3/18/8
f 4/58/45 24/20/10 11/57/44
f 13/35/25 14/59/46 24/20/10
f 25/60/47 1/31/21 9/26/16
f 2/51/39 25/60/47 9/26/16
f 4/58/45 59/17/7 46/61/48
f 28/62/33 64/63/49 68/64/50
f 112/65/51 35/66/52 36/67/53
f 109/68/54 21/69/55 110/70/56
f 34/71/57 42/72/58 43/73/59
f 20/27/17 27/30/20 32/74/60
f 5/75/37 30/76/61 18/24/14
f 15/22/12 29/77/62 3/18/8
f 3/18/8 65/78/63 50/19/9
f 39/79/64 37/80/65 36/67/53
f 21/81/55 36/67/53 35/66/52
f 112/65/51 37/80/65 113/82/66
f 109/68/54 38/83/67 39/84/64
f 114/85/68 37/80/65 38/86/67
f 110/87/56 35/66/52 111/88/69
f 74/89/70 89/90/71 40/91/72
f 28/92/33 41/93/73 29/94/62
f 65/95/63 41/93/73 71/96/74
f 34/97/57 76/98/75 70/99/76
f 68/64/50 40/91/72 28/62/33
f 69/100/77 74/89/70 68/64/50
f 70/99/76 75/101/78 69/100/77
f 26/102/79 73/103/80 42/72/58
f 67/104/81 72/105/82 73/106/80
f 66/107/83 71/108/74 72/109/82
f 43/110/59 80/111/84 76/98/75
f 76/98/75 83/112/85 75/101/78
f 74/113/70 85/114/86 71/108/74
f 12/29/19 67/115/81 26/116/79
f 52/117/87 66/118/83 67/115/81
f 51/119/88 65/78/63 66/118/83
f 70/99/76 30/76/61 34/97/57
f 69/100/77 62/45/34 70/99/76
f 68/64/50 63/120/89 69/100/77
f 44/38/27 25/60/47 10/41/30
f 45/40/29 61/121/90 44/38/27
f 46/61/48 60/122/91 45/40/29
f 8/123/26 58/124/92 14/125/46
f 53/32/22 57/126/93 58/124/92
f 54/127/94 56/53/41 57/126/93
f 14/125/46 49/128/95 7/129/11
f 57/126/93 49/128/95 58/124/92
f 56/53/41 48/130/96 57/126/93
f 49/128/95 31/131/32 7/129/11
f 48/130/96 64/63/49 49/128/95
f 47/46/35 63/120/89 48/130/96
f 19/52/40 115/132/97 2/51/39
f 13/35/25 116/133/98 120/134/99
f 46/61/48 116/133/98 4/58/45
f 19/52/40 117/135/100 122/136/101
f 16/56/43 117/137/100 6/55/38
f 55/54/42 128/138/102 129/139/103
f 25/60/47 52/117/87 12/29/19
f 61/121/90 51/119/88 52/117/87
f 60/122/91 50/19/9 51/119/88
f 86/140/104 101/141/105 102/142/106
f 42/72/58 77/143/107 78/144/108
f 76/145/75 77/143/107 73/103/80
f 43/73/59 78/144/108 79/146/109
f 79/146/109 94/147/110 95/148/111
f 76/149/75 82/150/112 84/151/113
f 73/106/80 81/152/114 82/150/112
f 75/153/78 81/152/114 72/105/82
f 82/150/112 97/154/115 98/155/116
f 72/109/82 85/114/86 86/140/104
f 75/101/78 87/156/117 74/89/70
f 75/157/78 86/140/104 88/158/118
f 78/144/108 93/159/119 94/147/110
f 74/160/70 91/161/120 92/162/121
f 40/163/72 90/164/122 41/93/73
f 71/96/74 90/164/122 91/161/120
f 94/147/110 96/165/123 95/148/111
f 97/154/115 100/166/124 98/155/116
f 101/141/105 104/167/125 102/142/106
f 106/168/126 108/169/127 107/170/128
f 84/171/113 99/172/129 83/112/85
f 89/173/71 106/168/126 90/164/122
f 79/174/109 96/175/123 80/111/84
f 88/176/118 103/177/130 87/156/117
f 84/151/113 98/155/116 100/166/124
f 91/161/120 106/168/126 107/170/128
f 80/178/84 93/159/119 77/143/107
f 88/158/118 102/142/106 104/167/125
f 83/179/85 97/154/115 81/152/114
f 92/180/121 105/181/131 89/90/71
f 87/182/117 101/141/105 85/114/86
f 92/162/121 107/170/128 108/169/127
f 26/183/79 111/88/69 27/184/20
f 30/185/61 113/82/66 114/85/68
f 34/186/57 114/187/68 109/68/54
f 32/188/60 113/82/66 33/189/36
f 34/186/57 110/70/56 26/190/79
f 32/188/60 111/88/69 112/65/51
f 120/191/99 126/192/132 130/193/133
f 123/194/134 115/132/97 122/195/101
f 117/196/100 123/194/134 122/195/101
f 127/197/24 120/191/99 130/193/133
f 129/198/103 123/194/134 121/199/135
f 129/198/103 131/200/136 132/201/137
f 128/202/102 130/193/133 131/200/136
f 123/194/134 124/42/31 119/203/138
f 131/200/136 124/42/31 132/201/137
f 130/193/133 125/39/28 131/200/136
f 16/56/43 129/139/103 121/204/135
f 45/40/29 126/192/132 46/61/48
f 54/127/94 127/34/24 128/138/102
f 10/41/30 115/132/97 119/203/138
f 59/17/7 11/57/44 3/18/8
f 24/20/10 14/59/46 7/21/11
f 17/23/13 5/75/37 18/24/14
f 9/26/16 1/31/21 20/27/17
f 12/29/19 26/116/79 27/30/20
f 53/32/22 8/123/26 118/33/23
f 13/35/25 120/134/99 118/36/23
f 44/38/27 124/42/31 125/39/28
f 10/41/30 119/203/138 124/42/31
f 15/22/12 7/21/11 31/43/32
f 18/24/14 30/76/61 62/45/34
f 20/27/17 32/74/60 33/47/36
f 22/28/18 20/27/17 5/48/37
f 6/50/38 19/52/40 22/28/18
f 2/51/39 9/26/16 22/28/18
f 23/25/15 18/24/14 47/46/35
f 55/54/42 16/56/43 23/25/15
f 6/55/38 17/23/13 23/25/15
f 11/57/44 24/20/10 15/22/12
f 4/58/45 13/35/25 24/20/10
f 13/35/25 8/37/26 14/59/46
f 25/60/47 12/29/19 1/31/21
f 2/51/39 10/41/30 25/60/47
f 4/58/45 11/57/44 59/17/7
f 28/62/33 31/131/32 64/63/49
f 112/65/51 111/88/69 35/66/52
f 109/68/54 39/84/64 21/69/55
f 34/71/57 26/102/79 42/72/58
f 20/27/17 1/31/21 27/30/20
f 5/75/37 33/205/36 30/76/61
f 15/22/12 28/44/33 29/77/62
f 3/18/8 29/77/62 65/78/63
f 39/79/64 38/86/67 37/80/65
f 21/81/55 39/79/64 36/67/53
f 112/65/51 36/67/53 37/80/65
f 109/68/54 114/187/68 38/83/67
f 114/85/68 113/82/66 37/80/65
f 110/87/56 21/81/55 35/66/52
f 74/89/70 92/180/121 89/90/71
f 28/92/33 40/163/72 41/93/73
f 65/95/63 29/94/62 41/93/73
f 34/97/57 43/110/59 76/98/75
f 68/64/50 74/89/70 40/91/72
f 69/100/77 75/101/78 74/89/70
f 70/99/76 76/98/75 75/101/78
f 26/102/79 67/206/81 73/103/80
f 67/104/81 66/207/83 72/105/82
f 66/107/83 65/208/63 71/108/74
f 43/110/59 79/174/109 80/111/84
f 76/98/75 84/171/113 83/112/85
f 74/113/70 87/182/117 85/114/86
f 12/29/19 52/117/87 67/115/81
f 52/117/87 51/119/88 66/118/83
f 51/119/88 50/19/9 65/78/63
f 70/99/76 62/45/34 30/76/61
f 69/100/77 63/120/89 62/45/34
f 68/64/50 64/63/49 63/120/89
f 44/38/27 61/121/90 25/60/47
f 45/40/29 60/122/91 61/121/90
f 46/61/48 59/17/7 60/122/91
f 8/123/26 53/32/22 58/124/92
f 53/32/22 54/127/94 57/126/93
f 54/127/94 55/54/42 56/53/41
f 14/125/46 58/124/92 49/128/95
f 57/126/93 48/130/96 49/128/95
f 56/53/41 47/46/35 48/130/96
f 49/128/95 64/63/49 31/131/32
f 48/130/96 63/120/89 64/63/49
f 47/46/35 62/45/34 63/120/89
f 19/52/40 122/136/101 115/132/97
f 13/35/25 4/58/45 116/133/98
f 46/61/48 126/192/132 116/133/98
f 19/52/40 6/50/38 117/135/100
f 16/56/43 121/204/135 117/137/100
f 55/54/42 54/127/94 128/138/102
f 25/60/47 61/121/90 52/117/87
f 61/121/90 60/122/91 51/119/88
f 60/122/91 59/17/7 50/19/9
f 86/140/104 85/114/86 101/141/105
f 42/72/58 73/103/80 77/143/107
f 76/145/75 80/178/84 77/143/107
f 43/73/59 42/72/58 78/144/108
f 79/146/109 78/144/108 94/147/110
f 76/149/75 73/106/80 82/150/112
f 73/106/80 72/105/82 81/152/114
f 75/153/78 83/179/85 81/152/114
f 82/150/112 81/152/114 97/154/115
f 72/109/82 71/108/74 85/114/86
f 75/101/78 88/176/118 87/156/117
f 75/157/78 72/109/82 86/140/104
f 78/144/108 77/143/107 93/159/119
f 74/160/70 71/96/74 91/161/120
f 40/163/72 89/173/71 90/164/122
f 71/96/74 41/93/73 90/164/122
f 94/147/110 93/159/119 96/165/123
f 97/154/115 99/209/129 100/166/124
f 101/141/105 103/210/130 104/167/125
f 106/168/126 105/211/131 108/169/127
f 84/171/113 100/212/124 99/172/129
f 89/173/71 105/211/131 106/168/126
f 79/174/109 95/213/111 96/175/123
f 88/176/118 104/214/125 103/177/130
f 84/151/113 82/150/112 98/155/116
f 91/161/120 90/164/122 106/168/126
f 80/178/84 96/165/123 93/159/119
f 88/158/118 86/140/104 102/142/106
f 83/179/85 99/209/129 97/154/115
f 92/180/121 108/215/127 105/181/131
f 87/182/117 103/210/130 101/141/105
f 92/162/121 91/161/120 107/170/128
f 26/183/79 110/87/56 111/88/69
f 30/185/61 33/189/36 113/82/66
f 34/186/57 30/216/61 114/187/68
f 32/188/60 112/65/51 113/82/66
f 34/186/57 109/68/54 110/70/56
f 32/188/60 27/184/20 111/88/69
f 120/191/99 116/133/98 126/192/132
f 123/194/134 119/203/138 115/132/97
f 117/196/100 121/199/135 123/194/134
f 127/197/24 118/217/23 120/191/99
f 129/198/103 132/201/137 123/194/134
f 129/198/103 128/202/102 131/200/136
f 128/202/102 127/197/24 130/193/133
f 123/194/134 132/201/137 124/42/31
f 131/200/136 125/39/28 124/42/31
f 130/193/133 126/192/132 125/39/28
f 16/56/43 55/54/42 129/139/103
f 45/40/29 125/39/28 126/192/132
f 54/127/94 53/32/22 127/34/24
f 10/41/30 2/51/39 115/132/97
