# Blender v2.77 (sub 0) OBJ File: 'Modele.blend'
# www.blender.org
o Cube.002_Cube.006
v -13.855298 0.414444 13.855298
v -13.855298 28.125040 13.855298
v -13.855298 0.414444 -13.855298
v -13.855298 28.125040 -13.855298
v 13.855298 0.414444 13.855298
v 13.855298 28.125040 13.855298
v 13.855298 0.414444 -13.855298
v 13.855298 28.125040 -13.855298
vt 0.249930 0.502216
vt -0.000027 0.333507
vt 0.249930 0.333507
vt 0.999800 0.502216
vt 0.749844 0.333507
vt 0.999800 0.333507
vt 0.749844 0.502216
vt 0.499887 0.333507
vt 0.499887 0.502216
vt 0.249930 0.999478
vt 0.499887 0.000522
vt -0.000027 0.502216
vt 0.499887 0.999478
vt 0.249930 0.000522
vn 1.000000 0.000000 0.000000
vn 0.000000 0.000000 1.000000
vn -1.000000 0.000000 0.000000
vn 0.000000 0.000000 -1.000000
vn 0.000000 1.000000 0.000000
vn 0.000000 -1.000000 0.000000
s off
f 1/1/1 4/2/1 2/3/1
f 3/4/2 8/5/2 4/6/2
f 7/7/3 6/8/3 8/5/3
f 5/9/4 2/3/4 6/8/4
f 5/9/5 3/10/5 1/1/5
f 2/3/6 8/11/6 6/8/6
f 1/1/1 3/12/1 4/2/1
f 3/4/2 7/7/2 8/5/2
f 7/7/3 5/9/3 6/8/3
f 5/9/4 1/1/4 2/3/4
f 5/9/5 7/13/5 3/10/5
f 2/3/6 4/14/6 8/11/6
